<?xml version="1.0" encoding="utf-8"?>
<!-- Generator: Adobe Illustrator 24.2.1, SVG Export Plug-In . SVG Version: 6.00 Build 0)  -->
<svg version="1.1" id="Layer_1" xmlns="http://www.w3.org/2000/svg" xmlns:xlink="http://www.w3.org/1999/xlink" x="0px" y="0px"
	 viewBox="0 0 288 288" style="enable-background:new 0 0 288 288;" xml:space="preserve">
<style type="text/css">
	.st0{fill:#00CCB4;stroke:#29ABE2;stroke-width:10;stroke-miterlimit:10;}
	.st1{fill:#F0E6D5;stroke:#000000;stroke-miterlimit:10;}
	.st2{fill:none;}
	.st3{fill:#0071BC;}
</style>
<path class="st0" d="M261,283H27c-12.1,0-22-9.9-22-22V27C5,14.9,14.9,5,27,5H261c12.1,0,22,9.9,22,22V261
	C283,273.1,273.1,283,261,283z"/>
<path class="st1" d="M71.5,209.5"/>
<path class="st2" d="M30.8,207.6c9.9,15.4,19.8,30.8,29.6,46.1c-10.2-29.8-20.3-59.6-30.5-89.4c-4.1-12.1-8.3-25.2-4.3-37.3
	s19.9-20.9,29.9-13c16.4,12.9-5.1,44,9.5,58.9c3.3,3.3,7.8,5,12.2,6.6c16.5,6.1,32.9,12.1,49.4,18.2"/>
<g>
	<path class="st3" d="M49.5,65.4L49,66.5l1.2,1.5l-0.7,1.4l0.1,1.6l-0.1,0.4l0.3,0.3c0.2,0.7,0.2,1.2-0.1,1.7l-0.1,0.3l0.1,0.3
		c0.3,0.3,0.4,0.6,0.5,0.9c0.1,0.2,0.1,0.4,0.1,0.5l0.2,0.3l-0.1,0.9l0.5,0.8l-0.4,0.8l0.5,0.9l0.6,0.4L51,80.3l0.4,1.2l-0.2,1.3
		l0.7,1l-0.3,0.7l0.9,0.3l-0.6,2l0,0.2l0.8-0.1l0,1.8l0.1,0.3c0.1,0.3,0.2,0.6,0.2,0.8l0.1,0.2l1.3-0.2l1.5,1.1l-0.2,1.3l0.8-0.3
		c0.5,0.5,0.8,0.9,1,1.3l-0.8,1.4c-0.3,0.5-0.7,0.9-1.3,1.5l-1.1,1.1L53.8,97l-0.7,0.6l-3.2-1.8l-0.4-1.2c-0.6-0.9-1-1.7-1.3-2.5
		l-0.1-0.4l-1.8-4.1l-0.3-3.2l-1-1.6l-0.7,2.4l-0.1,2.1l-0.5,0.5l-0.6,1.9l-1.4,2.3l-0.3,1l-1.3,1.9L40,95.9l-2.1,2.2l-1.8,3.6
		l-1.4,0.7l-0.8,1c-1.3,0.4-2.5,0.2-3.4-0.5c-2.7-0.3-4.4-1.5-5.1-3.4l0.3-0.3l-0.2-0.4L25.2,98l-0.8-0.8l0.2-1.2l-0.3-1.6L24.1,92
		c0,0,0-0.1-0.1-0.3c-0.1-0.1-0.1-0.2-0.2-0.3c-0.1-0.2-0.1-0.5-0.1-0.8c-0.1-0.1-0.2-0.3-0.3-0.6c-0.1-0.3-0.1-0.9,0-1.8l0.5-0.4
		c-0.4-0.1-0.6-0.4-0.7-0.7c-0.1-0.2-0.1-0.3-0.1-0.4c0-0.1-0.1-0.3-0.2-0.5c-0.2-0.6,0-1.1,0.5-1.6c0-0.5,0.1-1.1,0.4-1.7l-0.6-0.5
		l0.6-1.4l-0.1-0.3c-0.3-0.9-0.2-1.9,0.2-2.8l-0.5-1.3l0.2-0.4c0,0,0-0.1-0.1-0.2c-0.1-0.1-0.1-0.1-0.1-0.2
		c-0.1-0.3-0.1-0.6,0.1-0.8l-0.1-0.4c0.1-0.5,0.4-1.4,1-2.7c0.6-1.2,1-2.3,1.2-3.1l0.5,0.2l0.7-0.6l0.3-0.3l2.2-1.9l6.1-1.6l0.2,0.5
		l2-0.2c1.2-0.4,2.1-0.2,2.7,0.4c0-0.1-0.1-0.3-0.1-0.5c0-0.1-0.1-0.2-0.1-0.3l2.1,0.9l1.6-0.2l2.6-1.5l1.6,1.5L49.5,65.4z
		 M43.2,71.4L42.7,71l-0.7,0l-3-1.1l-1.6,0.3l-1.3,0.4l-0.2-0.2l-0.5,0.5l-0.8-0.1l-2,0.6l0.3,0.2l-1.6,1.1l-0.2,0.5l-0.2,0.1
		c-0.7,1-1.2,1.8-1.4,2.4l0,1.9l-0.1,0.7l1.1,0.8l-1,1.4l0.2,0.2c-0.3,1.1-0.3,2.1,0,2.9l-0.4,0.9l0.4,1.3l-0.4,0.8l0,0.7L29,87.7
		l0.3,1l-0.1,0.4c0.2,0.6,0.3,1.1,0.3,1.4l0.3,0.3l-0.3,1.6l0.4,0.3l-0.3,0.9l1,1.2L30,96.2l0.6,1.3l0.1,0.2l0.4,0l0.4-0.2
		c0.2-0.3,0.4-0.6,0.6-0.9l-0.3-0.5l1-0.5l0.1-0.6l3.5-4.9l0.4-0.3l0.2-1.4c0.3-0.2,0.7-0.5,1.1-1l0.2-1.3l0.6-0.2l-0.6-1.2l1.1-0.5
		c0-0.2,0.1-0.5,0.3-0.9c0.1-0.4,0.3-0.7,0.5-1l2.5-6.1l0.3-1.3l-0.2-0.3l0.3-1L42.8,73l0.5-0.8L43.2,71.4z"/>
	<path class="st3" d="M94.6,71.8l-0.3,2.5l1.1,1.3L95.2,76l0,1.3l-0.3,1.2l-0.3,0.2l0.3,1.4l-1.4,0.6c-0.5,0.9-1.1,1.6-1.8,2.2
		L91.3,83l-1.1,0.7L89.5,84l-1.3,1l-1.9-0.2L86,84.7l-1.3,0.5l0.4,0l-2.3,0.4l-1.8,1l-1-0.4l-1.6,0.7l-0.8-0.2
		c-0.1,0-0.3,0.1-0.6,0.3l0.1,0.4c0.1,0.4,0.2,0.9,0.2,1.4L78,90l-0.2,0.9c0.3,1.1,0.6,1.9,0.7,2.4l0.3,1.9l1.1,2.7l-0.3,0.9l0.6,1
		l0,0.8l0.5,0.1l0.3,1.1c0.1,0.3,0.2,0.5,0.2,0.7c0.1,0.4,0,0.9-0.4,1.3l0.6,0.9l-0.4,0.7l0.9,2.9c0.9,3.4,0.6,5.4-0.9,5.8
		c-0.3,0.1-1.3,0.2-2.9,0.3l-0.3-2.3l-1.6-3l0.4-1.6l-0.5-1.6l-1-2.1l0.5-1l-1.1-1.5l0.1-1l-0.8-1.3l0.1-1.5
		c-0.2-0.3-0.4-0.5-0.8-0.6c-0.3-0.2-0.5-0.3-0.6-0.4c0-0.1,0-0.3,0.3-0.6c0-0.1-0.1-0.4-0.2-0.7c-0.2-0.6-0.3-1.5-0.3-2.6l-0.7-0.6
		l-0.1-1l-0.8-0.5l0.5-1l-1-2L70,84.2l-0.8-0.8l0.4-1.6l-1.1-0.5l0-1.5L68,79.6l-0.2-1.3l-0.2-1.6l-0.1-0.3l0-0.3l-0.2-0.8l0-0.3
		l-0.7-1l0-1.3l-0.7-0.8l0-1.2l-0.4-0.2l-0.2-1.5l-0.5-0.7l-0.1-0.8L64.3,67l-2.5,2l-0.1-0.4l-0.5,0.2l-0.6,1L59.8,70l-0.6,1.4
		l-0.9,0l-0.2,0.8c-3-0.6-4.6-1.3-4.9-2.1c-0.2-0.6-0.1-1.1,0.3-1.7l-0.4-1.1c1.2-1.2,2.5-2.1,3.8-2.5l0.4-0.7l2.2-1.7l0.4-0.7
		l2.2-0.5l0.3-0.3l-0.1-2.7l2-0.2l1.8,1.5l0.5-0.9l1.7,0.5c0.7-0.2,1.4-0.3,2.1-0.2l0.6,0.5l0.5-0.4l0.8,0.2
		c0.4-0.1,0.7-0.2,0.9-0.2l0.1,0.5l1.6-1l1.1,0.6l1.6,0L79,60l2.2,0.5l0.1,0.1l1.6,0L83,61c0.5,0.2,0.9,0.5,1.3,0.9l0.7,0.2l0.7,0.6
		l0.9-0.3l0.4,1.4l0.7,0.3l0.3,0.5l0.8-0.1c0.4,1.1,1.1,1.9,1.9,2.5l0.2,0.5l1,0.5l0.2,1.2l1,1.1l0.7,1.4L94.6,71.8z M89.1,74.7
		l-0.2-0.3l0-0.3L88,72.8l0.1-0.7l-0.5-0.5l-0.3-0.7l-1-1l-0.6-0.7L84,67.7l-1.2-0.4l-0.9-1.1l-0.8-0.1L79.4,65l-1.2,0.5l-1.3-0.9
		l-0.7,0.4l-0.8-0.8l-0.3,0l-1.1,0.3l-0.7,0.6l-0.8-0.4l-0.7,0.4l-0.5-0.4l-1.5,0.2L70,66l0.4,1.4L71,68l1.3,0.6l-0.3,2l0.4,1.1
		l0.1,2.3c0.5,0.9,1.1,1.5,1.8,2l-0.1,0.9c0.1,0,0.1,0.1,0.1,0.1c0,0.1-0.1,0.4-0.4,0.8l0.7,0.5l-0.1,1l0.1,1l0.5,0.9l0.2,1l1.6-0.5
		c0.2-0.2,0.4-0.3,0.8-0.4c0.5-0.1,0.9-0.1,1.4,0c0.1,0,0.1-0.1,0.3-0.2c0.1,0,0.2-0.1,0.2-0.1c0.2,0,0.5-0.1,0.9-0.1
		c0.3-0.2,0.5-0.4,0.8-0.5c0.4-0.1,0.8-0.2,1.3-0.1l0.7-0.2l0.7,0l1.4-0.9l1.5,0.3c0.5,0,0.7,0,0.6,0l1.1-1.8l-0.2-1.1l0.3-0.3
		L88.5,76l0.4-0.7L89.1,74.7z"/>
	<path class="st3" d="M131.2,60.5l-0.3,2.5l1.1,1.3l-0.2,0.5l0,1.3l-0.3,1.2l-0.3,0.2l0.3,1.4l-1.4,0.6c-0.5,0.9-1.1,1.6-1.8,2.2
		l-0.5,0.1l-1.1,0.7l-0.7,0.3l-1.3,1l-1.9-0.2l-0.3-0.1l-1.3,0.5l0.4,0l-2.3,0.4l-1.8,1l-1-0.4l-1.6,0.7l-0.8-0.2
		c-0.1,0-0.3,0.1-0.6,0.3l0.1,0.4c0.1,0.4,0.2,0.9,0.2,1.4l0.7,1.3l-0.2,0.9c0.3,1.1,0.6,1.9,0.7,2.4l0.3,1.9l1.1,2.7l-0.3,0.9
		l0.6,1l0,0.8l0.5,0.1l0.3,1.1c0.1,0.3,0.2,0.5,0.2,0.7c0.1,0.4,0,0.9-0.4,1.3l0.6,0.9l-0.4,0.7l0.9,2.9c0.9,3.4,0.6,5.4-0.9,5.8
		c-0.3,0.1-1.3,0.2-2.9,0.3l-0.3-2.3l-1.6-3l0.4-1.6l-0.5-1.6l-1-2.1l0.5-1l-1.1-1.5l0.1-1l-0.8-1.3l0.1-1.5
		c-0.2-0.3-0.4-0.5-0.8-0.6c-0.3-0.2-0.5-0.3-0.6-0.4c0-0.1,0-0.3,0.3-0.6c0-0.1-0.1-0.4-0.2-0.7c-0.2-0.6-0.3-1.5-0.3-2.6l-0.7-0.6
		l-0.1-1l-0.8-0.5l0.5-1l-1-2l-0.4-3.1l-0.8-0.8l0.4-1.6l-1.1-0.5l0-1.5l-0.6-0.2l-0.2-1.3l-0.2-1.6l-0.1-0.3l0-0.3l-0.2-0.8l0-0.3
		l-0.7-1l0-1.3l-0.7-0.8l0-1.2l-0.4-0.2l-0.2-1.5l-0.5-0.7l-0.1-0.8l-0.4-0.4l-2.5,2l-0.1-0.4l-0.5,0.2l-0.6,1l-0.7,0.2l-0.6,1.4
		l-0.9,0L94.7,61c-3-0.6-4.6-1.3-4.9-2.1c-0.2-0.6-0.1-1.1,0.3-1.7l-0.4-1.1c1.2-1.2,2.5-2.1,3.8-2.5l0.4-0.7l2.2-1.7l0.4-0.7
		l2.2-0.5l0.3-0.3L99,47l2-0.2l1.8,1.5l0.5-0.9l1.7,0.5c0.7-0.2,1.4-0.3,2.1-0.2l0.6,0.5l0.5-0.4l0.8,0.2c0.4-0.1,0.7-0.2,0.9-0.2
		l0.1,0.5l1.6-1l1.1,0.6l1.6,0l1.4,0.8l2.2,0.5l0.1,0.1l1.6,0l0.1,0.4c0.5,0.2,0.9,0.5,1.3,0.9l0.7,0.2l0.7,0.6l0.9-0.3l0.4,1.4
		l0.7,0.3l0.3,0.5l0.8-0.1c0.4,1.1,1.1,1.9,1.9,2.5l0.2,0.5l1,0.5l0.2,1.2l1,1.1l0.7,1.4L131.2,60.5z M125.6,63.4l-0.2-0.3l0-0.3
		l-0.9-1.2l0.1-0.7l-0.5-0.5l-0.3-0.7l-1-1l-0.6-0.7l-1.8-1.5l-1.2-0.4l-0.9-1.1l-0.8-0.1l-1.7-1.1l-1.2,0.5l-1.3-0.9l-0.7,0.4
		l-0.8-0.8l-0.3,0l-1.1,0.3l-0.7,0.6l-0.8-0.4l-0.7,0.4l-0.5-0.4l-1.5,0.2l0.3,0.9l0.4,1.4l0.5,0.7l1.3,0.6l-0.3,2l0.4,1.1l0.1,2.3
		c0.5,0.9,1.1,1.5,1.8,2l-0.1,0.9c0.1,0,0.1,0.1,0.1,0.1c0,0.1-0.1,0.4-0.4,0.8l0.7,0.5l-0.1,1l0.1,1l0.5,0.9l0.2,1l1.6-0.5
		c0.2-0.2,0.4-0.3,0.8-0.4c0.5-0.1,0.9-0.1,1.4,0c0.1,0,0.1-0.1,0.3-0.2c0.1,0,0.2-0.1,0.2-0.1c0.2,0,0.5-0.1,0.9-0.1
		c0.3-0.2,0.5-0.4,0.8-0.5c0.4-0.1,0.8-0.2,1.3-0.1l0.7-0.2l0.7,0l1.4-0.9l1.5,0.3c0.5,0,0.7,0,0.6,0l1.1-1.8l-0.2-1.1l0.3-0.3
		l-0.4-0.5l0.4-0.7L125.6,63.4z"/>
	<path class="st3" d="M159.9,54.7c0.2,0.5,0.1,1-0.2,1.5c-0.2,0.7-0.7,1.5-1.5,2.4l-0.6,0.7l-0.4,1.1l-0.6,0.5l-0.9,1l-0.8,0.3
		l-0.2,0.4c-0.9,0.6-1.6,1.3-2,2.2c-0.3,0.4-0.6,0.6-0.9,0.7c-0.2,0.1-0.4,0.1-0.6,0.1c-0.7,0.8-1.8,1.3-3.2,1.8
		c-1.2,0.4-2,0.5-2.4,0.4l-1.6-0.3l-0.7-0.6l-0.1-0.2c-0.2-0.6-0.6-1-1.4-1.2l-0.8-1.3l-0.8-0.4l-1.2-2.5l-0.5-1.6l-0.4-1.2l0.1-0.5
		c-0.2-0.2-0.4-0.5-0.5-0.9c-0.4-2.1-0.6-3.4-0.8-3.9l-1.1-1.1l0.4-1.3l-0.3-1.9l-0.5-1.2l0.1-1.2l-0.9-1.3l0.5-1.3l-0.1-0.7
		l-0.8-2.5l-0.2-0.5l-0.9-3l-0.7-3.2l-0.4-0.5l-0.7-2.2l-0.6-2l-0.2-0.7l-0.9-4.5c2-1.1,2.9-1.7,2.6-1.6c0.8-0.3,1.6,0,2.4,0.6
		l0.3,0.5l1.5,0.7l0.2,1.6l0.1,0.3c0.1,1,0.1,1.6,0,2l0.7,1.4l0.7,1.3l-0.1,1.7c0.3,0.8,0.4,1.6,0.3,2.4c0.1,0.2,0.1,0.6,0.2,1.2
		l0.1,0.5l0.9,0.6l0,0.9c0.3,0.3,0.4,0.6,0.5,0.7c0.1,0.3,0.1,0.7,0,1.3l0.4,0.6l0.2,2.5l0.5,1.5l-0.1,1.7l0.7,1.3l0.7,3.3l0.3,0.3
		l0.1,1.8l0.5,2.1c0,0.3,0,0.5,0,0.6c0.3,0.8,0.4,1.5,0.5,2l0.5,0.9l0.3,1.1l0.8,0.8l0,0.4c0.4,0.1,0.8,0.4,1.2,0.9l0.7-0.2l1.1,0
		l0.3-0.7l0.7-0.3c0.3-0.2,0.5-0.3,0.7-0.4l0.2-0.1c0.5-0.3,0.8-0.6,1-1.1l0.4-0.4c0.2-0.6,0.7-1.2,1.5-1.6c0.2-0.3,0.6-0.8,1.1-1.6
		c-0.2-0.7,0.1-1.3,0.9-1.9c0.8-0.2,1.3-0.5,1.4-0.8c1.1-0.2,1.8-0.1,2.2,0.1C159.3,53,159.6,53.7,159.9,54.7z"/>
	<path class="st3" d="M189.1,47.8c0.2,0.6-0.1,1.4-0.7,2.6c0,0.9-0.2,1.6-0.6,2.2l-0.4,0.2l-0.4,1.6l-1.3,0.7l-1.2,1.3l-0.4,1.5
		l-0.9,0.3c-0.5,0.4-0.9,0.7-1.3,0.8l-0.3,0.7c-0.2,0-0.4,0.1-0.7,0.2c-0.7,0.2-1.2,0.8-1.6,1.8l-1.4-0.5c-0.2,0.1-0.5,0.2-0.9,0.3
		c-0.7,0.2-1.3,0.3-1.8,0.2l-1.3,0.4L173,62c-2.1,0.3-3.5,0-4.4-0.9l-0.1-0.2l-1.1-0.1l-0.8-1.1l-1.1-0.3l-0.3-1.1l-1.9-2.9
		l-0.8-2.6l0.1-1.3l-0.5-1.5l0-1.3l-0.2-0.5l0.3-1l-0.1,0.2c-0.1-0.4-0.1-0.9,0-1.5l-0.1-0.4l-0.8-1.7c-0.3-0.8-0.1-1.7,0.5-2.5
		c0-0.1,0-0.3-0.1-0.5c-0.1-0.2-0.3-0.6-0.6-1.1c-0.4-0.5-0.6-0.9-0.7-1.2c-0.2-0.6-0.2-1.2-0.1-2c0.6,0.4,1.3,0.6,2.1,0.3l0.2-0.1
		c0-0.2,0.2-0.5,0.5-0.9c0-1.3,0.3-2.5,0.8-3.6l0.2-0.4c-0.1-0.2-0.1-0.8,0-1.8l0.6-0.2l0-0.4l0.6-0.3c0.1-0.5,0.2-0.7,0.3-0.8
		c0.1-0.1,0.5-0.6,1.4-1.4c0.1-0.4,0.3-0.8,0.6-1.2c0.2-0.2,0.4-0.3,0.7-0.5l0.2-0.5c1.3-0.9,2.1-1.4,2.5-1.5
		c0.4-0.1,0.8-0.2,1.3-0.1l0.4-0.2l0.6,0.1c0.8,0.2,1.5,0.4,2.2,0.5l1.6,0.5l0.1,0.3c1.5,0.5,2.4,1.5,2.9,3.1l0,0.8l1,2.3l-0.6,0.7
		l-0.2,2.1l-1,2l0.3,1.2c-1.3,1.6-2.6,3-3.8,4.1c-0.3,0.8-0.9,1.4-1.9,1.7l-0.2,0.1l-1.2,1.3l-1.3,0.4l-1.7,1.3l-1.6-0.2l-0.2,0
		c0,0.4,0.1,1,0.2,1.8l-0.5,0.6l0.2,0.9l-0.1,1.4c0.5,1.1,0.7,1.9,0.9,2.2l-0.2,0.3c0.2,0.6,0.3,1.1,0.4,1.4c0,0,0,0.1,0,0.2
		c0,0.1,0.1,0.2,0.1,0.2c0.1,0.4,0.4,0.6,0.9,0.8c0.3,0.5,0.7,0.8,1.1,0.8l0.7,0.3l1.9-0.1l0.1,0.2l0.7,0l2.7-0.8l1.5-0.7l0.6-0.7
		l0.4-0.3l0.5-1.3l0.4-0.2l1.8-1.2c0.1-0.4,0.4-0.8,0.8-1.2l0.1-0.4c1-0.5,1.4-1.2,1.3-2.1c0.5-0.9,1.4-1.5,2.5-1.9l0.3-0.1
		C188.1,46.4,188.9,47.2,189.1,47.8z M174.9,29.4c0-0.1-0.2-0.4-0.5-0.8l-0.4,0l-0.1,0.1c-0.1,0-0.2,0-0.3,0.1
		c-0.1,0.1-0.2,0.1-0.3,0.2c-0.1,0-0.1,0-0.3,0c-0.1,0-0.2,0.1-0.2,0.1l-0.6,0.7l-0.7,0.3l-0.3,0.3l-0.8,2l-0.7,0.8l-0.6,2.4
		l-0.6,0.7c0.1,0.9-0.1,1.7-0.4,2.4l-0.2,0.6c0.5-0.5,1.1-0.9,1.8-1.1l0.5-0.4l0-0.7l1.1-0.3l0.4-1.1l0.5-0.1l0.9,0l0.1-1.2l0.5-0.2
		l-0.2-0.8l0.9-0.5l0.2-0.3l0-0.7l0.6-1.7C175.1,30,175,29.7,174.9,29.4z"/>
	<path class="st3" d="M223.2,37.3l-0.6,1.3l-0.3,2.1l-0.5,0.6l-0.2,1.2l-1.5,0.6l-0.7,1.3l-1.6,0.5l-0.7,1l-0.9,0l-0.9,0.5l0.2,0.6
		l-3,0.7l-1.3,0.4l-0.8,0.8l-0.9-0.2c0.5-0.2,0.9-0.4,1.2-0.5c-0.4,0.2-1.6,0.6-3.7,1.4l-0.3,0l-0.7,0.1l-0.9,0.8
		c-0.4,0-1,0-1.8,0.1c-1.2,0.3-1.9,0.5-2.3,0.6l-0.6,0.2c-0.4,0-0.8,0-1.2,0.1c-0.4,0.1-0.8,0.3-1.2,0.6l-1.3-0.3l-0.7,0.1
		c-0.2,0-0.5,0.1-0.9,0c-2,0.4-3.4-0.8-4.3-3.5l-0.2-0.6l1.2-1.5l1.7-1.2l1.6,0.2l1.1-0.3l0.1,0.2c0.6,0,1.1,0.3,1.6,0.8l0.6-0.1
		l0.3,0.9l1.1-0.1l0.3,0.1l9.8-3.7l2.3-1.1l0.2-0.1l0-0.4l1.1-0.5l0.1-0.3c1.1-0.5,2-1.1,2.8-1.8l0-0.4c-0.1,0-0.2-0.2-0.5-0.4
		l-0.4,0.2l-1.2-0.4l-0.7,0.2l-0.5-0.4l0.1-0.4l-0.8,0.4l-0.8-0.4c-0.2,0-0.4,0.1-0.8,0.2c-0.7,0.2-1.4,0.3-2.1,0.3l-0.7,0.2l-0.6,0
		l-1,0.7l-0.8-0.5l-0.2,0.1l-1.3-0.5l-2.7-0.1l-1-0.3l-3.1,0.4l-0.5-0.4l-2.6-0.6l-1.9-2l-1.3-0.9l-1.5-3.7l0.2-0.5
		c-0.2-1.1-0.1-2.2,0.4-3.3c0.7-0.6,0.9-1.3,0.7-2l1.1-0.6c0.1-0.4,0.4-0.9,0.9-1.5l0.9-1.2l4.4-3.3l0.8-0.5l1.5-0.6l2.4-1.4l5-1.2
		l0.3,0.3c0.5,0,1.2,0.2,1.9,0.7l0.1,0.4l1.5,0.3l0,1.9l0,0.7c0.1,1.3-0.5,2.1-1.6,2.5c-0.9,0.3-1.8,0.1-2.5-0.6l-0.1-0.2l-0.9,0.3
		l-1,0.6l-1.2-0.4l-0.4,0.5c-0.7,0.2-1.2,0.6-1.7,1.2c-0.8,0.2-1.5,0.8-2,1.6l-1,0.3l-0.6,0.6l-1,0.6l-0.1,0.2L197,26l-0.5,0.9
		l-0.2,0.1l-0.4,1.2l-0.7,0.7c0,0.7,0,1.3,0.1,1.7c0.3,0.7,0.5,1.1,0.7,1.3c0.2,0.2,0.6,0.3,1.3,0.4l0.1,0.4l1.2,0.2
		c0.9,0,1.6,0.2,2.2,0.4l1.6-0.5l1.2,0.5l1.9-0.3l0.8,0.2l3.3-0.2l0.6,0.7l0.2-0.6c0.7-0.2,1.7-0.2,3,0l1.5-0.2l0.3,0.5l1.3-0.4
		l2.5,0.5c0.5,0.5,1.2,0.9,2.3,1.2l1,0.2l0,0.9c0.5,0.4,0.9,0.8,1,1.3L223.2,37.3z"/>
	<path class="st3" d="M72.1,173.8c0.3,1.1,0.3,1.9,0,2.3l-0.3,0.4l-0.1,1.1l-1.1,0.7c-0.1,0.9-0.5,1.7-1.1,2.3l-0.6,0.4l-0.7,1.3
		l-0.9,0.5c-0.1,1-0.7,1.7-1.8,2.1c-0.1,0.2-0.2,0.5-0.4,1.1c-0.6,0.7-1.4,1.3-2.2,1.6l-0.4,0.2l-0.3,0.8l-1.6,0.5l-1,1.3l-3.9-1.2
		l-2.4-2.4l-1.2-3.5l-0.6-0.8l-1-6.6l0.2-0.4c-0.4-0.7-0.7-1.3-0.9-2c-0.1-0.4-0.3-1.4-0.4-2.8l-0.1-1.8c-0.2-0.3-0.5-0.5-0.9-0.7
		l0-1.5l-0.4-1.7l0.1-0.3c-0.3-0.4-0.6-0.8-0.8-1.3c0-0.1,0-0.3,0-0.4c0-0.2,0-0.3,0-0.4c-0.3-0.4-0.5-0.8-0.6-1.2
		c-0.4-1.2,0.2-1.9,1.6-2.2l0.9-0.3c0.6-0.4,0.9-0.7,1.1-0.7c1-0.3,1.9,0,2.6,0.9l0.1,0.3c0.4,0.5,0.7,1,0.8,1.6
		c0.1,0.4,0.2,0.8,0.1,1l0.6,3.8l0.9,0.8c0.3,0.9,0.2,1.7-0.2,2.6l0.6,0.8l-0.2,3.1c0.3,1.2,0.4,2.2,0.5,2.9l0.6,1.8l-0.2,1.2
		l0.3,0.7l0.4,1.7l0.6,1.3l1.4,0.5l0.9-0.4l0.1-0.3l0.6-0.1l0.9-0.6l0.6-1.1l0.2-0.5l0.5-0.2l0-0.4l0.1-0.4l0.6,0.1l0.6-1l0.5-0.1
		l0-0.6l0.2,0l0-0.7l0.6-0.5l1.3-1.1c1-1.1,2-1.9,3.2-2.2l0.3-0.1C71.2,173,71.8,173.3,72.1,173.8z M52.3,138c0.2,0.6-0.1,1.2-0.8,2
		l0,0.1c-0.7,1.4-1.3,2.3-2,2.7l-0.8,1.7l-0.5,1.2l-1.7,1l-0.5,1.3l-1.1,1l-1.5,2.3l-1.6-0.7l-0.3-1.9l0.5-1.6
		c-0.2-0.7,0.1-1.4,0.7-2.1l-0.1-0.3l0.4-0.4l-0.3-1.1l1.2-0.7l-0.2-0.7l0.9-0.4c-0.1-1,0.1-1.9,0.7-2.5l0.2-0.2l0.3-0.6l0.1-1.9
		C49.8,135.7,51.9,136.4,52.3,138z"/>
	<path class="st3" d="M125.9,155.9c0.1,0.4-0.1,1-0.5,1.8l-0.5,1.5l0.1,1.5l-0.6,0.4l0,0.5c-0.8,0.5-1.2,1.3-1.2,2.4
		c-0.4,0.9-0.8,1.5-1.4,2c-0.2,0.3-0.4,0.6-0.5,0.7l-0.2,0.8l-0.7,0.4l-1.7,1.6l-2.6,1.1l-0.7,0.1l-1.1,0.6l-0.6-0.4
		c-0.8-0.1-1.5-0.3-1.9-0.5c-0.7,0-1.3-0.3-1.8-0.9c-1.2-0.7-1.9-1.3-2-1.9l-0.1-0.2l-0.8-0.7l-0.2-0.1l-0.9-1.2l-1.1-1.2l-0.4-1.7
		l-1.1-0.7l-3.1-5.9c-0.4-0.8-0.7-1.4-0.9-2l-0.3-0.3l-0.6-0.4l-0.4,1.1l-2,3.6l-0.6,1.8l-0.2,1.2l-0.5,1.4l-0.4,0.8l0.2,0.3
		l-0.4,2.6l-0.4,0.9l-0.7,0.4l-0.5,0.9c0.3,1,0,1.7-0.9,2.3l-0.1,0.2c-0.1,1.2-0.5,2-1,2.4l-0.4,1.2c-0.8,1.3-1.4,2.2-1.7,2.5
		c0,0.5-0.2,1-0.5,1.5c-0.1,0.2-0.2,0.4-0.4,0.7c0.1,0.9-0.5,1.7-1.7,2.4l-0.8,0.5c-1.1,0.3-2.1,0-3.1-0.9l-1.7-1.4l-0.1-1.9
		l-0.5-0.9l0.1-0.2l-0.2-1l-1.4-1.5l0.4-1.1l-0.6-0.8l0.3-1.2l-0.3-1.7l-0.3-0.2l0.2-1.2l-0.3-0.5l-0.4-1.1l-0.4-2.2
		c-0.3-0.4-0.5-0.7-0.5-0.9c0-0.1-0.1-0.2-0.1-0.3c0-0.1-0.1-0.2-0.1-0.3l-0.4-0.5l-0.5-2.4l-0.2-0.8l-0.4-1.2l-0.6-2l0.7-2.6
		c1.6-0.2,2.8-0.3,3.6,0c0.7,0.2,1.3,0.9,1.6,1.9l0.2,0.7l0.9,0.7l0.2,1.6l1.2,2.8l-0.1,1.5l0.7,1.4l0.4,1.2l-0.5,1l1.1,1.1l-0.4,1
		l0.1,0.8l0.7,0.7l-0.2,1.7l0,0.7l0.2,0.7l0.6,0.6l1-1.6c-0.2-0.7-0.1-1.3,0.3-1.7c-0.1-0.5,0-0.9,0.3-1.3l-0.3-0.1l0.7-1.2l0.1-0.4
		l-0.2-0.7l1-1.3l0.1-0.8l0.6-0.7l2.1-4.1c-0.2,0.4-0.8,1.5-1.8,3.5l0,0.1l0-0.6l0.7-1.4l0.3-1.4l-0.2-0.7l1.1-0.7l-0.1-1l0.2-0.4
		l0-0.4l-0.2-0.5l0.8-1.3c0-0.1-0.1-0.2-0.1-0.4c-0.1-0.1-0.2-0.2-0.2-0.3c-0.3-0.9,0.1-1.5,1.1-1.9c0.2-1,0.7-1.7,1.6-2.2l0.3-0.8
		l0.1-0.2c0.3-0.8,0.8-1.4,1.7-2l0.5-1l1.9-0.6l1.3,0.7l1,0.2l0.1,0.2l0.6,0l0.6,1.5l1.6,0.3l-0.1,1.8l1.4,1.5l0.6,2l1.5,2.6l1,2.6
		l1.2,1.3l1,1.7c0.4,0.2,0.8,0.5,1.1,1l1.5-0.1l0.4,1.4l1,0.6l0.1,0.2l0.3,0l0.4,0.3l0.2-0.5c-0.1,0,0,0,0.4,0c0.6-0.2,1-0.8,1.4-2
		l0.9-0.5l0.1-0.4c0-0.4,0.3-0.8,0.7-1.2l0.6-0.1l0.2-0.4l0-0.4l0.1-0.4c0.4-0.5,0.6-1.1,0.5-1.8l0.6-1.1l0-0.7l0.2-1.3l1.3-1l2.3,0
		l1.3,1.9c0,0,0.1,0.1,0.1,0.1C125.9,155.8,125.9,155.9,125.9,155.9z"/>
	<path class="st3" d="M107.9,256.9l-0.5,0.9l0.8,1.7L107,262l0.3,0.9l-0.4,0.8l0.7,0.5l-1.1,1.9l-0.5,1.9l-1.4,1.4
		c-0.5,0.8-1,1.3-1.8,1.6l-0.2,1.5l-1-0.4l-0.5,1.2c-0.1-0.2-0.4-0.5-0.9-0.7l-0.6-0.1l-0.4,0.8l-0.2,0.1l-0.5,0.8l-1.1,0l-1.5,1
		l-1.3-0.5c-0.2,0-0.4,0.1-0.7,0.2c-0.8,0.3-2,0.4-3.3,0.3l-1.3-0.2l-0.5-0.2l-1.4,0l-1-1.3c-0.9,0.2-1.9,0.3-2.9,0.3l-2.7-2.7
		l0.2-0.6l-0.6-0.5l-0.4-1.3l-0.7-0.6l0.2-1c-0.4-0.4-0.7-0.9-0.8-1.3c0-0.1,0-0.2,0-0.3c0-0.1-0.1-0.2-0.1-0.3l-0.7-2.2l0.1-0.8
		l-1.3-4.3l0-1.1l-0.4-0.3l0.2-2.3l-0.6-0.5l-0.5-1.6l0.3-0.6l-0.4-1l-0.5-0.6l0-2.5l-1.4-2.7l0.2-0.3l-0.3-0.9
		c-0.1-0.2-0.2-0.6-0.4-1.2c-0.2-0.7-0.4-1.2-0.5-1.6l-0.2-0.5l-1.2-1.9c0-0.4,0.1-0.7,0.3-0.9c-0.2-0.1-0.3-0.2-0.5-0.4
		c0.2-0.4,0.2-0.7,0.1-1c-0.1-0.4-0.5-0.7-1.2-1.1c-0.1-0.4-0.1-0.9,0-1.3l-0.5-0.6l0.1-0.9l-2-2.1l1.2-0.6l0-0.1l2.3-2.1l1.9,1.1
		l0.4,0.7l1.4,0.4l0.3,1.1c0.1,0.4,0.2,0.9,0.3,1.6c0.6,0.2,0.9,0.4,1,0.7c0,0.1,0,0.3-0.2,0.6l0.4,0.2l0,1.3l0.9,1.1l-0.1,0.6
		l1.3,0.1l-0.2,1.1l0.2,2c0,0.3,0.1,0.8,0.1,1.4c0.1,0.3,0.3,0.9,0.6,2l0.2,0.6l0.2,0.6l0.1,1.2c0.1,0.4,0.2,0.9,0.2,1.4l0,0.2
		c0.3,0.2,0.7,0.4,1.1,0.7l-0.4,1.8l0.5,0.8l0,0.5c0.1,0.4,0.2,0.9,0.2,1.4l0.2,0.3l0.2,0.8l0.3,1.1l0.5,2.4l1.1-0.1l-0.5-2.3
		l0.1-1.7l0.4,0l0.1-1.2c-0.1-0.9,0.1-1.9,0.5-2.8c0-0.2,0.1-0.5,0.3-0.7l0.2-0.3l0,0.1l0-1l0.6-1.2l0.4-0.7l0-0.3l0.3-0.7
		c-0.2-0.6-0.1-1.2,0.3-1.6l0-0.6l0.9-0.6l0.3-0.3l0-0.5l-0.3-1l1.1-0.6l0.5-0.4l-0.7-0.3l1.2-0.7l1-1.3l2.4-0.7l1.7,0.3l0.5-0.1
		l1.9,1.3l0.3,0.7l0.6-0.1l0.7,1.4l1,0.3l0.3,1.1l0.6,0.4l0.6,0.1l1,2.2l0.1,0.2c0.1,0.2,0.3,0.5,0.8,0.8c0.4,0.3,0.7,0.6,0.8,0.9
		c0.1,0.3,0.1,0.6,0,0.9l1,0.1c0.1,0.7,0.1,1.3-0.1,1.8l0.7,1.5c0.4,0.4,0.6,0.7,0.6,1c0,0.1,0.1,0.4,0.1,0.8l0.9,3.1l0.5,0.6l0,1.3
		L107.9,256.9z M101,253.1l-0.6-1.3l-0.3-1.2l-1.6-3.1l-1.4-2.2l-1.7-1.8l-2.5-2l-0.3,0.3l-0.2,0.5l-0.4,0.1
		c0.1,0.9-0.4,1.6-1.3,1.9c-0.3,0.7-0.6,1.5-1,2.7l-0.7,1.1l0,1.2l-0.4,1.1l-0.2,2c0.3,0.8,0.2,1.8-0.2,3l-0.3,0.8l0.4,1.2l-0.8,2
		l0.2,2.7l-0.5,0.5c0,0,0.1,0.1,0.2,0.3c0,0.1,0.1,0.3,0.1,0.4c0.3,0.9,0.3,1.8,0.1,2.8l0.9,1.2l-0.9,0.7l-0.1,0.3l-0.5,0.8l1.9-0.2
		l1.2,0.2l1.5-0.7l1.6,0.1l0.3,1l0.4,0.2l1.9-0.6l1.2-0.6c0.2-0.5,0.6-0.9,1.2-1.1l0.2-0.1l0.6-0.4l-0.6-0.8l2.2-0.7
		c0.1-1.4,0.6-2.8,1.6-4.1l-0.2-0.7l0.4-1.9l-0.5-1.7l-0.3-2l-0.5-1.1L101,253.1z"/>
	<path class="st3" d="M137.9,251.4c0.2,0.5,0.1,1-0.2,1.5c-0.2,0.7-0.7,1.5-1.5,2.4l-0.6,0.7l-0.4,1.1l-0.6,0.5l-0.9,1l-0.8,0.3
		l-0.2,0.4c-0.9,0.6-1.6,1.3-2,2.2c-0.3,0.4-0.6,0.6-0.9,0.7c-0.2,0.1-0.4,0.1-0.6,0.1c-0.7,0.8-1.8,1.3-3.2,1.8
		c-1.2,0.4-2,0.5-2.4,0.4l-1.6-0.3l-0.7-0.6l-0.1-0.2c-0.2-0.6-0.6-1-1.4-1.2l-0.8-1.3l-0.8-0.4l-1.2-2.5l-0.5-1.6l-0.4-1.2l0.1-0.5
		c-0.2-0.2-0.4-0.5-0.5-0.9c-0.4-2.1-0.6-3.4-0.8-3.9l-1.1-1.1l0.4-1.3l-0.3-1.9l-0.5-1.2l0.1-1.2l-0.9-1.3l0.5-1.3l-0.1-0.7
		l-0.8-2.5l-0.2-0.5l-0.9-3l-0.7-3.2l-0.4-0.5l-0.7-2.2l-0.6-2l-0.2-0.7l-0.9-4.5c2-1.1,2.9-1.7,2.6-1.6c0.8-0.3,1.6,0,2.4,0.6
		l0.3,0.5l1.5,0.7l0.2,1.6l0.1,0.3c0.1,1,0.1,1.6,0,2l0.7,1.4l0.7,1.3l-0.1,1.7c0.3,0.8,0.4,1.6,0.3,2.4c0.1,0.2,0.1,0.6,0.2,1.2
		l0.1,0.5l0.9,0.6l0,0.9c0.3,0.3,0.4,0.6,0.5,0.7c0.1,0.3,0.1,0.7,0,1.3l0.4,0.6l0.2,2.5l0.5,1.5l-0.1,1.7l0.7,1.3l0.7,3.3l0.3,0.3
		l0.1,1.8l0.5,2.1c0,0.3,0,0.5,0,0.6c0.3,0.8,0.4,1.5,0.5,2l0.5,0.9l0.3,1.1l0.8,0.8l0,0.4c0.4,0.1,0.8,0.4,1.2,0.9l0.7-0.2l1.1,0
		l0.3-0.7l0.7-0.3c0.3-0.2,0.5-0.3,0.7-0.4l0.2-0.1c0.5-0.3,0.8-0.6,1-1.1l0.4-0.4c0.2-0.6,0.7-1.2,1.5-1.6c0.2-0.3,0.6-0.8,1.1-1.6
		c-0.2-0.7,0.1-1.3,0.9-1.9c0.8-0.2,1.3-0.5,1.4-0.8c1.1-0.2,1.8-0.1,2.2,0.1C137.3,249.7,137.6,250.4,137.9,251.4z"/>
	<path class="st3" d="M166.7,232.6l-0.1,1.4c0.4,1.3,0.6,2.3,0.7,3L167,238l0.2,0.8l-0.2,0.6l0.1,1.1l-0.6,1.1l0,2l-0.6,0.4
		l-0.1,0.9l-0.8,0.8l-0.2,1.4l-0.8,0.7l0.2,0.9l-1.3,1c-0.4,1.1-1.1,1.9-2,2.4l-0.3,0.2c-0.4,1.2-1.2,2-2.4,2.4
		c-0.4,0.5-1,0.8-1.7,1l-0.6,0.7l-0.7,0.5l-0.8,1l-1,0.3l-1,0.6l-1.5-0.1l-3.4,0.8l-1.7-1.3l-2.2-1.1l0-1.3l-1.9-2.1l0.1-1.1
		l-0.8-1.7l-0.1-1.2c-0.2-0.7-0.4-1.2-0.4-1.4c-0.3-0.9-0.2-1.7,0.2-2.3c-0.1-0.5,0-1.4,0.3-2.7l0.4-0.1l-0.4-0.4l-0.1-1.1l-0.3-1.1
		c0.3-0.6,0.4-0.9,0.4-1.1l-0.5-0.9l-0.1-0.3c0.2-0.8,0.1-1.5-0.1-2.3l1-2.6c0.2-0.3,0.3-0.5,0.4-0.6l-0.2-0.3l0.3-0.1l0.8-1.6
		l-0.4-1.7l1.8-1.3c0.6-0.7,0.8-1.5,0.7-2.6l1-0.3c0.5-0.5,1-0.8,1.4-0.9c0.5-0.1,0.9-0.2,1.4-0.1l0.9-0.2l1.8-1.3l1.4,0.6l1,0.2
		l0.6-0.2l1.4,0.2l0.6-0.2c0.9,0.4,1.9,0.9,3.1,1.7l0.3,0.3l0.6,0.1l2.2,1.4l2.5,2.9l0.2,0.7L166.7,232.6z M162,235.9l-0.2-0.3
		c-0.5-0.2-0.8-0.5-1-0.9l0.1-0.4l-1.1-1.2l-0.3-1.4l-0.4-0.3c-0.8-0.3-1.3-0.5-1.4-0.8c-0.5,0-0.9-0.5-1.1-1.2l-0.5,0.1l-1.4-1.2
		l-0.9-0.3L152,228l-0.7,0c-0.3,0.1-0.6,0.1-0.7-0.1l-1.1,2.1l-0.4,2.3l-1.4,1.3l0,0.9l-0.7,0.6l0.3,2l-0.8,0.7c0,0.7,0.1,1.4,0.3,2
		l-0.9,1.5l0.5,0.1c0.2,0.6,0.1,1.2-0.3,1.8c0,0.5-0.1,1-0.3,1.7l0.2,0.6l0.1,0.3l0.3,0.9l-0.3,2.2l0.3,0.3l0.6,2l0,1.1l0.4,1l1,0.7
		l1.2,0l0.4,0l0.6-0.2l2-0.6l0.1-0.8l0.3-0.1c0.3-0.1,0.5-0.1,0.6,0l0.6-0.4l0.7,0l0.8-1l0.1-0.3l0.7-0.4c0.2-0.6,0.9-1.4,2.1-2.4
		l0-0.4l1.2-1.5l0.5-1.4l1.1-1l0-0.4l0.2-0.9l-0.3-0.9l0.7-1l0.2-0.6l0.3-0.6c-0.4-0.5-0.6-0.9-0.7-1.1c-0.1-0.4-0.1-0.9,0-1.5
		L162,235.9z"/>
	<path class="st3" d="M200,222.3l-0.1,1.4c0.4,1.3,0.6,2.3,0.7,3l-0.2,0.9l0.2,0.8l-0.2,0.6l0.1,1.1l-0.6,1.1l0,2l-0.6,0.4l-0.1,0.9
		l-0.8,0.8l-0.2,1.4l-0.8,0.7l0.2,0.9l-1.3,1c-0.4,1.1-1.1,1.9-2,2.4l-0.3,0.2c-0.4,1.2-1.2,2-2.4,2.4c-0.4,0.5-1,0.8-1.7,1
		l-0.6,0.7l-0.7,0.5l-0.8,1l-1,0.3l-1,0.6l-1.5-0.1l-3.4,0.8l-1.7-1.3l-2.2-1.1l0-1.3l-1.9-2.1l0.1-1.1l-0.8-1.7l-0.1-1.2
		c-0.2-0.7-0.4-1.2-0.4-1.4c-0.3-0.9-0.2-1.7,0.2-2.3c-0.1-0.5,0-1.4,0.3-2.7l0.4-0.1l-0.4-0.4l-0.1-1.1l-0.3-1.1
		c0.3-0.6,0.4-0.9,0.4-1.1l-0.5-0.9l-0.1-0.3c0.2-0.8,0.1-1.5-0.1-2.3l1-2.6c0.2-0.3,0.3-0.5,0.4-0.6l-0.2-0.3l0.3-0.1l0.8-1.6
		l-0.4-1.7l1.8-1.3c0.6-0.7,0.8-1.5,0.7-2.6l1-0.3c0.5-0.5,1-0.8,1.4-0.9c0.5-0.1,0.9-0.2,1.4-0.1l0.9-0.2l1.8-1.3l1.4,0.6l1,0.2
		l0.6-0.2l1.4,0.2l0.6-0.2c0.9,0.4,1.9,0.9,3.1,1.7l0.3,0.3l0.6,0.1l2.2,1.4l2.5,2.9l0.2,0.7L200,222.3z M195.4,225.6l-0.2-0.3
		c-0.5-0.2-0.8-0.5-1-0.9l0.1-0.4l-1.1-1.2l-0.3-1.4l-0.4-0.3c-0.8-0.3-1.3-0.5-1.4-0.8c-0.5,0-0.9-0.5-1.1-1.2l-0.5,0.1l-1.4-1.2
		l-0.9-0.3l-1.8-0.1l-0.7,0c-0.3,0.1-0.6,0.1-0.7-0.1l-1.1,2.1l-0.4,2.3l-1.4,1.3l0,0.9l-0.7,0.6l0.3,2l-0.8,0.7
		c0,0.7,0.1,1.4,0.3,2l-0.9,1.5l0.5,0.1c0.2,0.6,0.1,1.2-0.3,1.8c0,0.5-0.1,1-0.3,1.7l0.2,0.6l0.1,0.3l0.3,0.9l-0.3,2.2l0.3,0.3
		l0.6,2l0,1.1l0.4,1l1,0.7l1.2,0l0.4,0l0.6-0.2l2-0.6l0.1-0.8l0.3-0.1c0.3-0.1,0.5-0.1,0.6,0l0.6-0.4l0.7,0l0.8-1l0.1-0.3l0.7-0.4
		c0.2-0.6,0.9-1.4,2.1-2.4l0-0.4l1.2-1.5l0.5-1.4l1.1-1l0-0.4l0.2-0.9l-0.3-0.9l0.7-1l0.2-0.6l0.3-0.6c-0.4-0.5-0.6-0.9-0.7-1.1
		c-0.1-0.4-0.1-0.9,0-1.5L195.4,225.6z"/>
	<path class="st3" d="M274.5,208.5c-0.1,0.8-0.2,1.4-0.5,1.8c0,0.6-0.1,1-0.3,1.4c-0.1,0.6-0.3,1-0.6,1.3l-0.2,0.5
		c-0.1,0.4-0.4,0.6-0.7,0.7l-0.2,0.8l-0.5,0.2l-0.2,0.8l-0.6,0.4l-0.3,0.7l-0.3,0.4c-0.8,0.2-1.4,0.7-1.8,1.3c-0.6,0.5-1.3,0.8-2,1
		c-0.7,0.2-1.5,0.3-2.3,0.2c-0.8,0.2-1.3,0.2-1.4,0l-1.1,0.2l-0.3-0.1l-0.7-0.7l-1.1-0.4c-0.8-0.4-1.3-0.9-1.5-1.4
		c-0.5-0.4-1.2-1.2-1.9-2.4l-1.1-0.9l-0.2-0.7l-1.2-2l-0.2-0.9l-1.2-2.1l-0.3-1.9l-0.5-0.4l-0.2,2c-0.7,1.3-1.1,2.1-1.2,2.4
		c-0.1,0.3-0.3,0.5-0.6,0.5c-0.1,0-0.2,0-0.3,0l-0.2,0.9c0,0.1,0,0.2,0,0.3c0.1,0.3,0.3,0.4,0.7,0.3c-0.1,0.1-0.2,0.5-0.5,1.3
		c-0.1,0.5-0.2,0.8-0.3,1l-0.3-0.3l0.2,1.1c-0.5,0.7-0.8,1.6-0.7,2.6c-0.3,0.8-0.9,1.9-1.6,3.4l-0.7,1.3c-0.3,0.1-0.4,0.2-0.3,0.3
		l0,0.1c-0.1,0.8-0.5,1.5-1.2,2.1l-0.6,1.4l-0.5,0.2l-1.7,1.2c-1.6,0.4-2.8,0.1-3.5-1l-0.3-0.8l-0.8-0.8l-0.2-0.8l-1.3-1.9l-0.2-0.7
		L234,222l-0.5-2.3c-0.1-0.2-0.2-0.6-0.3-1c-0.1-0.4-0.2-0.7-0.2-0.8l-0.1-0.4l-0.1-0.3l-0.6-0.7l0.2-1.6c-0.2-0.4-0.6-0.9-1-1.7
		l0-0.7l-0.4-2.2l-1.1-1.3l-0.2-1.3l-0.4-0.6c-0.1-0.1-0.4-0.5-1-1.2l-0.5,0.5l-0.7,1.5l-0.7,1.1l-1.2,2.7l0.1,0.8l-0.9,1.7
		l-0.2,1.2l-0.4,0.7c0.2,1.1-0.2,2-1,2.8l0.2,1c-0.2,0.4-0.4,0.9-0.6,1.5c-0.2,0.6-0.3,0.9-0.4,1c-0.1,0.1-0.3,0.3-0.5,0.7l-0.6,1.5
		c0.3,0.8,0.1,1.5-0.5,2l0.1,0.4c-0.2,0.5-0.5,1-0.9,1.5l-0.1-0.1l0.1,1.1c-0.4,0.1-0.7,0.7-0.8,1.8l-0.1,0.4
		c0.2,0.8-0.1,1.5-0.8,2.2l-0.8,1.3c-0.7,0.7-1.2,1-1.5,1.1c-1.4,0.4-2.6-0.3-3.7-2.3l-0.8-1.5c-0.1-0.1-0.2-0.2-0.2-0.4
		c-0.1-0.3-0.1-0.7,0-1.1l-0.7-1.3l-0.4-1.2l-0.4-1.2c-0.2-1-0.2-1.7,0-2.1c-0.5-1-0.7-1.5-0.8-1.7l-0.4-1.3
		c0.1-0.4,0.2-0.9,0.4-1.5l-0.7-0.3c-0.2-0.3-0.4-0.5-0.4-0.6c-0.1-0.3,0.1-1,0.6-2.1l-1-1.2l0-1l-1.1-2l-0.2-1.1l-1-1.4l-0.1-1.2
		l-0.9-1.1c0.4-2.2,1.2-3.5,2.4-3.8c0.6-0.2,1.3-0.1,2,0.2l0.4,0.7c1,0.2,1.6,0.7,1.9,1.6c0-0.1,0,0.4,0.2,1.6l-0.3,0l1.1,1
		l-0.4,0.8l0,0.3l1.7,3.1l0.7,2.9l-0.1,0.6l0.7,1.1c0.2,0.1,0.4,0.4,0.5,0.7c0.1,0.4,0,0.8-0.3,1.3c0.2,0.7,0.2,1.3,0.1,1.8l0.9,2.1
		l0.3,0.9l0-0.2l0.3-0.8l0.5-2.1l0.2-0.1c0.3-0.1,0.5-0.7,0.6-1.7l0.1-1.5c0-0.3,0.3-0.9,0.7-1.7l-0.1-1.4l0.5-1.6l0-1.1
		c0.2-0.2,0.4-0.5,0.6-0.7l0-0.2c0.1-0.2,0.5-0.9,1.3-2l0.4-0.4l-0.1-0.8l0.3-0.3c-0.1-1.1,0.4-2,1.3-2.6l-0.4-0.1l0.3-0.2
		c-0.1,0-0.1-0.1-0.1-0.2c0-0.1,0-0.3,0-0.5l1.1-0.9l-0.1-1.2l0.9-0.3c0,0,0-0.2,0-0.6l1.2-1.6c0.7-0.4,1.1-0.7,1.4-0.7
		c0.6-0.2,1.5-0.3,2.7-0.3l1.1,0.8l0.4,0l0.7,0.7l1.5,1l0.3,0.9l0.9,0.5l0.3,1.1c0.9,1,1.5,1.9,1.8,2.7l0,0.9l0.8,1.1l-0.6,1.1
		l0.8,1.5l0.1,0.5l0,0.4c0,0.5,0.1,0.9,0.2,1.1c0.1,0.2,0.4,0.7,0.8,1.3l0,0.9l0.5,0.9l-0.2,0.3c0.3,0.6,0.8,1.7,1.5,3.3l0.1,0.3
		l1.7-3.3l0.3-1.6c0.1-0.4,0.3-0.9,0.6-1.7l0-0.1c0-0.8,0.1-1.5,0.5-1.9c-0.1-0.3,0.1-0.7,0.4-1.3l0.5-0.6c0-0.9,0.3-1.7,1-2.5
		l0.1-1.1l0.4-1.1l0.6-1c0.4-0.5,0.6-1.1,0.6-1.9l0.4-1.1l0-1.2l0.7-0.7l0.5-1.3l0.3-2c-0.2,0.1-0.3,0-0.4,0l0.1-0.3l0.4-0.6
		l0.3-1.3c0.8-0.6,1.2-0.9,1.3-0.9l0.4,0l1.4-0.4l1.4,0.1l1.4,0.8l0.5,0.9l0.2,0.8l-0.3,0.4l-0.4,1.8l0.1,1.8
		c0.4,0.1,0.7,0.5,0.9,1.2c-0.1,0.3-0.1,0.6,0.1,1l-0.1,0.6c0.1,0.2,0.2,0.6,0.4,1.2c0.1,0.4,0.2,0.8,0.2,1l-0.2,0.5l0.5,0.4
		l-0.4,0.8c0.3-0.1,0.6,0.2,0.8,0.8c0.2,0.3,0.3,0.4,0.3,0.5c0,0.1,0.1,0.3,0.2,0.5c0.1,0.5,0.3,0.9,0.4,1.4l0,0.1
		c0,0.1,0.7,1,1.9,2.6l0.4,0.7l1.1,0.6l0.8,0.9l0.5,0.1l0.4,0.3l0.4,0l0.7-0.1l0.4-0.2l0.2-0.1c0.5-0.2,1.1-0.5,1.7-1.2
		c0.1-0.5,0.5-1.2,1.2-2c0-0.3,0.1-0.8,0.5-1.7l1.1-1.3l0.2-1c0.3-0.4,0.7-0.6,1.2-0.8c0.6-0.2,1.2-0.2,2-0.1
		C273.8,206.9,274.2,207.6,274.5,208.5z"/>
</g>
</svg>
