<?xml version="1.0" encoding="utf-8"?>
<!-- Generator: Adobe Illustrator 24.2.1, SVG Export Plug-In . SVG Version: 6.00 Build 0)  -->
<svg version="1.1" id="Layer_1" xmlns="http://www.w3.org/2000/svg" xmlns:xlink="http://www.w3.org/1999/xlink" x="0px" y="0px"
	 viewBox="0 0 288 288" style="enable-background:new 0 0 288 288;" xml:space="preserve">
<style type="text/css">
	.st0{fill:#FF4453;stroke:#29ABE2;stroke-width:10;stroke-miterlimit:10;}
	.st1{fill:none;stroke:#0071BC;stroke-width:8;stroke-miterlimit:10;}
</style>
<path class="st0" d="M261,283H27c-12.1,0-22-9.9-22-22V27C5,14.9,14.9,5,27,5H261c12.1,0,22,9.9,22,22V261
	C283,273.1,273.1,283,261,283z"/>
<path class="st1" d="M200.5,224.5h-118c-18.7,0-34-15.3-34-34v-66c0-18.7,15.3-34,34-34h118c18.7,0,34,15.3,34,34v66
	C234.5,209.2,219.2,224.5,200.5,224.5z"/>
<path class="st1" d="M192.5,60.5h-102c-8.2,0-15,6.7-15,15v0c0,8.2,6.7,15,15,15h102c8.2,0,15-6.7,15-15v0
	C207.5,67.2,200.8,60.5,192.5,60.5z"/>
<path class="st1" d="M141.5,195.5L141.5,195.5c-20.9,0-38-17.1-38-38v0c0-20.9,17.1-38,38-38h0c20.9,0,38,17.1,38,38v0
	C179.5,178.4,162.4,195.5,141.5,195.5z"/>
</svg>
