<svg xmlns="http://www.w3.org/2000/svg" viewBox="0 0 494.79 160.81"><defs><style>.cls-1{fill:#e72484;}.cls-2{fill:#070708;}.cls-3{fill:#fff;}</style></defs><g id="Layer_2" data-name="Layer 2"><g id="Layer_1-2" data-name="Layer 1"><path class="cls-1" d="M180.19,104.76a21.59,21.59,0,0,1-17.7,8.4,22.16,22.16,0,0,1-8.4-1.55,19.08,19.08,0,0,1-6.52-4.29,19.48,19.48,0,0,1-4.24-6.56,22.54,22.54,0,0,1-1.52-8.4A23,23,0,0,1,143.3,84a19.89,19.89,0,0,1,4.24-6.68,19.4,19.4,0,0,1,6.55-4.41,21.78,21.78,0,0,1,8.4-1.57,26.13,26.13,0,0,1,9.6,1.72,16.49,16.49,0,0,1,7.45,6l-7,7a13.25,13.25,0,0,0-4-3.63,10.28,10.28,0,0,0-5.3-1.37,11.45,11.45,0,0,0-4.47.83,9.19,9.19,0,0,0-3.31,2.33,10.46,10.46,0,0,0-2.06,3.48,13.5,13.5,0,0,0,0,8.73,10.58,10.58,0,0,0,2.12,3.52,9.52,9.52,0,0,0,3.31,2.32,10.74,10.74,0,0,0,4.32.84,11.49,11.49,0,0,0,5.63-1.22,15.1,15.1,0,0,0,4.26-3.85l7.09,6.68Z"/><path class="cls-1" d="M202.12,103.21a9.46,9.46,0,0,0,4.14-.87,8.93,8.93,0,0,0,3.07-2.35,10.31,10.31,0,0,0,1.91-3.52,14.48,14.48,0,0,0,0-8.58,10.26,10.26,0,0,0-1.91-3.51A9,9,0,0,0,206.26,82,10.39,10.39,0,0,0,198,82a9.05,9.05,0,0,0-3.07,2.36A10.43,10.43,0,0,0,193,87.89a14.48,14.48,0,0,0,0,8.58,10.48,10.48,0,0,0,1.91,3.52,9,9,0,0,0,3.07,2.35,9.46,9.46,0,0,0,4.14.87Zm0,9.89a21.24,21.24,0,0,1-8.25-1.58,20,20,0,0,1-6.56-4.35,19.78,19.78,0,0,1-4.32-6.62,23.37,23.37,0,0,1,0-16.74,19.29,19.29,0,0,1,10.88-10.93,21.41,21.41,0,0,1,8.25-1.55,21.73,21.73,0,0,1,8.29,1.55A19.4,19.4,0,0,1,217,77.19a19.81,19.81,0,0,1,4.29,6.62,23.37,23.37,0,0,1,0,16.74,19.36,19.36,0,0,1-10.84,11,21.55,21.55,0,0,1-8.29,1.58Z"/><polygon class="cls-1" points="228.31 71.85 238.44 71.85 248.16 89.3 257.69 71.85 267.88 71.85 269.74 111.85 259.27 111.85 258.29 87.86 251.11 101.85 245.16 101.85 237.18 87.86 236.38 111.85 226.44 111.85 228.31 71.85 228.31 71.85"/><polygon class="cls-1" points="275.69 71.85 285.83 71.85 295.54 89.3 305.08 71.85 315.27 71.85 317.13 111.85 306.65 111.85 305.67 87.86 298.5 101.85 292.54 101.85 284.57 87.86 283.77 111.85 273.83 111.85 275.69 71.85 275.69 71.85"/><path class="cls-1" d="M322,72.85h10v23.3a8.9,8.9,0,0,0,1.51,5.36q1.51,2.08,5,2.09c2.33,0,4-.71,5-2.12A9.13,9.13,0,0,0,345,96.15V72.85h11V97.1a18.14,18.14,0,0,1-1.24,6.88,14.55,14.55,0,0,1-3.52,5.22,15.58,15.58,0,0,1-5.38,3.28,19.93,19.93,0,0,1-6.83,1.13,20.19,20.19,0,0,1-6.86-1.13,15.76,15.76,0,0,1-5.41-3.25,14.26,14.26,0,0,1-3.52-5.19A18.31,18.31,0,0,1,322,97.1V72.85Z"/><polygon class="cls-1" points="362 71.85 372.37 71.85 387 94.16 387 71.85 397 71.85 397 111.85 387.2 111.85 372 88.88 372 111.85 362 111.85 362 71.85 362 71.85"/><polygon class="cls-1" points="403 71.85 414 71.85 414 111.85 403 111.85 403 71.85 403 71.85"/><polygon class="cls-1" points="431 81.85 419 81.85 419 72.85 454 72.85 454 81.85 442 81.85 442 112.85 431 112.85 431 81.85 431 81.85"/><polygon class="cls-1" points="469 95.89 454.27 71.85 466.89 71.85 474.97 86.12 482.55 71.85 494.79 71.85 480 95.83 480 111.85 469 111.85 469 95.89 469 95.89"/><polygon class="cls-2" points="144 121.85 167 121.85 167 126.85 149 126.85 149 137.85 163 137.85 163 142.85 149 142.85 149 159.85 144 159.85 144 121.85 144 121.85"/><path class="cls-2" d="M172,121.85h5v22.21a23,23,0,0,0,.45,4.71,9.74,9.74,0,0,0,1.54,3.67,7.06,7.06,0,0,0,2.91,2.36,11.12,11.12,0,0,0,4.63.83,11,11,0,0,0,4.57-.83,7.06,7.06,0,0,0,2.91-2.36,9.74,9.74,0,0,0,1.54-3.67,23,23,0,0,0,.45-4.71V121.85h6v23.53a19.82,19.82,0,0,1-.9,6.06,13.67,13.67,0,0,1-2.74,4.9,12.74,12.74,0,0,1-4.67,3.28,19.26,19.26,0,0,1-13.33,0,13.08,13.08,0,0,1-4.69-3.28,13.44,13.44,0,0,1-2.77-4.9,19.82,19.82,0,0,1-.9-6.06V121.85Z"/><polygon class="cls-2" points="208 121.85 214.64 121.85 234 151.53 234 121.85 239 121.85 239 159.85 232.41 159.85 213 130.11 213 159.85 208 159.85 208 121.85 208 121.85"/><path class="cls-2" d="M257,154.85q7.08,0,11-3.48T272,141q0-6.9-3.79-10.55t-11.32-3.64H250v28Zm-12-33h12.71A29.35,29.35,0,0,1,266,123a17.36,17.36,0,0,1,6.53,3.47,16.2,16.2,0,0,1,4.27,6,21.5,21.5,0,0,1,1.54,8.54,20.88,20.88,0,0,1-1.54,8.35,16.22,16.22,0,0,1-4.27,5.92,17.58,17.58,0,0,1-6.55,3.51,29,29,0,0,1-8.32,1.14H245v-38Z"/><path class="cls-2" d="M116.45,72.36a10.67,10.67,0,0,0-6.37,2.54c.64-7.43-2.11-12.93-7.21-14.84a13.33,13.33,0,0,0-9.54.42l-4.14-10c3.81-9.34,10.49-20.71,10.49-30C99.68,13.26,96,7.94,89,7.94c-4.25,0-8.92,3.48-12.47,8C71.69,5.1,66.6,0,61.09,0c-8.7,0-12.3,8.71-12.3,16.13,0,6.15,1.69,16.34,8.27,30.77a265.11,265.11,0,0,0-11.88,31c-5.3-5.51-14-11-25-11a25.67,25.67,0,0,0-14.43,4C2.12,73.42,0,76.81,0,80.43c0,5.3,3.61,8.91,9.12,10.39,9.54,2.54,13.79,10.18,17.39,25.25,6.58,27.16,23.55,43.49,49.64,43.49a50.16,50.16,0,0,0,50.06-50.07,59.07,59.07,0,0,0-1.06-10.82,44.63,44.63,0,0,0,1.91-6.36c2.33-11.68-2.13-20-10.61-20"/><path class="cls-3" d="M100.7,66c4.43,2,4.77,11.27.32,22.3-3.61,10.62-8.8,17.1-13.63,17.13-3.82,0-7-2.69-7-9.91,0-13.58,11.15-33.74,20.31-29.52"/><path class="cls-3" d="M54.93,16.13c0-4.45,1.91-9.76,6.16-9.76q4.45,0,10.81,14A113.09,113.09,0,0,0,60.67,38.84c-3.83-10-5.74-17.41-5.74-22.71"/><path class="cls-3" d="M76.15,153.2c-22.27,0-37.55-15.48-43.49-38.62-4-15.91-9.12-26.51-22-29.91-1.49-.43-4.25-1.48-4.25-4.24,0-3,4.88-7.23,13.79-7.23,10.57,0,19.31,6.49,25.24,15.11l4.54-1.69C50.6,77.93,55,66,62.79,49.44c9.75-21,19.67-35.32,26.25-35.13,2.1,0,4.6,2.55,4.6,6.15,0,8.7-7.67,21.73-14.37,35.93-.68,1.42-3.74,8.14-3.74,8.14l4.39,1.9c1.44-2.41,4.41-8.22,4.81-9.19L88,64.51c-7,5.94-13.15,19.94-13.15,31,0,8.06,3.61,13.1,8.91,14.79,4.88,1.5,9.55.06,13.15-4.19.86,5.11,4.25,9.51,10.82,9.51,5.82,0,9.64-3.34,12.53-9.07,1,26.73-21,46.67-44.13,46.67"/><path class="cls-3" d="M121.33,91.45c-1.49,8.92-6.91,18.83-13.58,18.83-6.36,0-6-8.43-4.5-13.52,2.33-9.12,8.54-18.67,13.2-18.67,4.24,0,6.15,5.73,4.88,13.36"/><path class="cls-2" d="M98.79,136.16C79.9,146.88,62.34,140,55.71,120.47l5.49-2.57c5.4,15.93,21,20.3,35.36,12.8l2.23,5.46Z"/><path class="cls-2" d="M93.65,95.28a4.93,4.93,0,1,1-4.93-4.92,4.93,4.93,0,0,1,4.93,4.92"/><path class="cls-2" d="M114.4,101.25A4.44,4.44,0,1,1,110,96.81a4.43,4.43,0,0,1,4.43,4.44"/><path class="cls-2" d="M106.22,15.85a4.67,4.67,0,0,0,.58-.39.69.69,0,0,0,.18-.52.62.62,0,0,0-.19-.5c-.13-.11-.34-.17-.62.41H105v1Zm-1.22-3h1.26c.28.7.53.74.73.82a1.48,1.48,0,0,1,.51.32,1.13,1.13,0,0,1,.29.43,1.35,1.35,0,0,1,.09.47,1.58,1.58,0,0,1-.22.8,1.32,1.32,0,0,1-.68.53l1.12,1.63h-1l-1-2H104v2h1v-5Zm1.06,6.65a3.71,3.71,0,0,0,1.42-.28,3.46,3.46,0,0,0,1.85-1.93,3.92,3.92,0,0,0,0-2.86,3.43,3.43,0,0,0-.74-1.16,3.48,3.48,0,0,0-2.51-1.06,3.45,3.45,0,0,0-1.41.29,3.71,3.71,0,0,0-1.13.77,3.59,3.59,0,0,0-.74,1.16,3.92,3.92,0,0,0,0,2.86,3.63,3.63,0,0,0,.73,1.16,3.5,3.5,0,0,0,1.12.77,3.69,3.69,0,0,0,1.41.28Zm0,.86A4.32,4.32,0,0,1,104.3,20a4.39,4.39,0,0,1-1.43-1,5,5,0,0,1-1-1.43,4.78,4.78,0,0,1,0-3.54,5,5,0,0,1,1-1.43,4.73,4.73,0,0,1,1.43-1,4.39,4.39,0,0,1,1.78-.36,4.33,4.33,0,0,1,1.76.36,4.52,4.52,0,0,1,2.37,2.39,4.65,4.65,0,0,1,0,3.54,4.67,4.67,0,0,1-1,1.43,4.24,4.24,0,0,1-1.42,1,4.34,4.34,0,0,1-1.77.35Z"/></g></g></svg>