<?xml version="1.0" encoding="utf-8"?>
<!-- Generator: Adobe Illustrator 24.2.1, SVG Export Plug-In . SVG Version: 6.00 Build 0)  -->
<svg version="1.1" id="Layer_1" xmlns="http://www.w3.org/2000/svg" xmlns:xlink="http://www.w3.org/1999/xlink" x="0px" y="0px"
	 viewBox="0 0 899 345" style="enable-background:new 0 0 899 345;" xml:space="preserve">
<style type="text/css">
	.st0{fill:#FF4453;}
</style>
<g>
	<path class="st0" d="M27.1,267.8l-4.2-4.4l50.9-47.7l4.2,4.4l-17.4,16.4l116.8,62.2l-44-98.3l-21.9-11.7L97,202.3l-4.2-4.4
		l50.9-47.8l4.2,4.4l-16.8,15.7l113.2,61.1L186.9,118l-18.7,17.6l-4.2-4.4l36.1-33.9l4.2,4.4l-12.3,11.5l77.9,153.4l-5.1,4.8
		l-121.7-65.7l56.7,126.6l-5.1,4.8L40.6,255.2L27.1,267.8z"/>
	<path class="st0" d="M301.1,219.8c-3.5-8.7-3.8-16.1-0.9-22.2c2.9-6.1,8.3-11.4,16.2-15.8c5.4-3,9.8-6,13.1-9.1
		c3.3-3.1,6.5-6.8,9.6-11.1l-4.6-11.5c-1.1-2.7-2.4-5.1-4-7.4c-1.6-2.2-3.5-4.3-5.8-6.2c-2.3-1.9-5.1-3-8.4-3.4
		c-3.3-0.4-6.8,0.2-10.6,1.7c-4.4,1.7-7.8,4.2-10.4,7.4c-2.6,3.2-3.3,6.3-2.1,9.3c0.6,1.5,2.1,3.2,4.4,5c2.4,1.7,4,3.7,4.9,5.9
		c0.8,2.1,0.8,4.2-0.1,6.4c-0.9,2.2-2.9,3.9-6,5.1c-3.5,1.4-6.4,1.5-8.9,0.3c-2.4-1.2-4.3-3.3-5.5-6.4c-2.6-6.6-1.8-13.8,2.6-21.5
		c4.4-7.8,11.1-13.4,20.2-17.1c12.6-5,23.2-5.4,31.7-1c8.5,4.4,15,12.1,19.4,23.2l17.5,43.9c1.8,4.4,4.1,7.2,7,8.4
		c2.9,1.2,5.9,1.2,9-0.1c2.2-0.9,4.4-2,6.7-3.5l3.1,5.2c-3.1,2.4-6,4.1-8.6,5.2c-7,2.8-13.1,3.8-18.3,3.2
		c-5.2-0.6-10.1-3.9-14.8-9.8l-0.9,0.3c-1.4,6.8-3.7,12.6-6.9,17.3c-3.2,4.8-8.1,8.5-14.9,11.2c-7.3,2.9-14,3.2-20.1,1
		C308.4,231.5,303.9,226.8,301.1,219.8z M318.3,210.9c4.4,11.1,11.8,14.6,22.1,10.5c3.8-1.5,6.8-4.4,9-8.6c2.2-4.2,3.6-9.1,4.3-14.6
		l-12.6-31.5c-2.6,3.6-5.2,6.6-7.9,9c-2.6,2.4-6.6,5.5-12,9.4C314.4,190.1,313.4,198.7,318.3,210.9z"/>
	<path class="st0" d="M407.1,205.6l-0.9-5.5l16.4-2.8L395,35.5l-16.4,2.8l-0.9-5.5l35.3-6L441.5,194l16.4-2.8l0.9,5.5L407.1,205.6z"
		/>
	<path class="st0" d="M467.2,192.7l0.3-5.6l16.6,1L494,24.3l-16.6-1l0.3-5.6l35.8,2.2l-7,117l9.8,0.6l34.3-37.9l-17.1-1l0.3-5.6
		l41.8,2.5l-0.3,5.6l-16.8-1l-25.8,28.6l40.2,64.8l14.7,0.9l-0.3,5.6l-57.4-3.5l0.3-5.6l19.3,1.2L519,143.2l-12.9-0.8l-2.8,46.8
		l16.6,1l-0.3,5.6L467.2,192.7z"/>
	<path class="st0" d="M596.7,207.3l13-38.7l4.1,1.4c-0.1,5.6,0.1,10.4,0.5,14.4c0.4,4,1.2,8.1,2.4,12.3c1.2,4.2,3,7.7,5.6,10.4
		c2.6,2.8,5.8,4.8,9.7,6.1c7.6,2.6,13.9,3.1,18.9,1.6c5-1.5,8.4-4.9,10.2-10.4c1.8-5.3,1.3-10.2-1.6-14.7c-2.9-4.5-8.8-10-17.9-16.7
		c-4.3-3.1-7.8-6-10.5-8.6c-2.7-2.6-5.1-5.6-7.2-9c-2.1-3.3-3.2-6.9-3.5-10.8c-0.3-3.9,0.4-8.1,2-12.8c2.7-7.9,7.4-13.4,14.3-16.4
		c6.9-3,13.9-3.3,21.1-0.9c5.4,1.8,10.7,4.9,16,9.2c2.7,2.1,4.5,3.4,5.6,3.8c3.6,1.2,7,0.4,10-2.3l3.9,1.3l-10.5,31.2l-4.4-1.5
		c-0.2-6.9-1.2-13-2.8-18.1c-1.4-4.5-3.7-8.2-6.8-11.1c-3.1-2.9-7.6-5.3-13.5-7.3c-4.3-1.4-8.1-1.2-11.6,0.6c-3.4,1.9-5.7,4.6-7,8.2
		c-0.8,2.4-1.1,4.6-0.9,6.7c0.2,2.1,0.6,4,1.4,5.7c0.7,1.7,2.1,3.6,4.1,5.6c2,2.1,3.9,3.9,5.8,5.5c1.9,1.6,4.6,3.8,8,6.4
		c10.5,8.1,17.5,15.2,20.9,21.5c3.4,6.2,3.7,13.3,1.1,21.3c-3,8.9-8.4,15.1-16.2,18.5c-7.8,3.5-17.9,3.1-30.2-1
		c-4.9-1.7-9.9-4.3-14.9-7.8c-3.3-2.3-6.3-3.8-8.8-4.7c-2.4-0.8-4.5,0-6.5,2.4L596.7,207.3z"/>
	<path class="st0" d="M638.9,272.5c2.1-3.2,4.7-5.2,7.9-6.1c3.2-0.8,6.4-0.2,9.6,1.9c2.3,1.5,3.7,3.3,4.1,5.6c0.5,2.2,0.1,4.3-1,6.1
		c-0.8,1.3-2.2,2.8-4.2,4.5c-1.9,1.6-3.3,3.2-4.2,4.6c-2.1,3.3-0.9,6.4,3.6,9.3c3.4,2.2,7.2,2.4,11.4,0.8c4.2-1.6,8.9-4.5,14-8.6
		l37.6-29.6l19.9-106.4l-11.7-7.5l3-4.7l45.1,29l-3,4.7l-16-10.3l-14.6,77.3l60.6-47.7l-12.1-7.8l3-4.7l30.3,19.5l-3,4.7l-12.7-8.2
		l-121.3,95.3c-2.5,1.9-4.6,3.5-6.3,4.7c-1.7,1.2-4,2.4-6.7,3.8c-2.7,1.4-5.3,2.2-7.6,2.5c-2.3,0.3-5,0.2-8-0.4
		c-3-0.6-6-1.8-8.8-3.7c-5.5-3.5-9.2-7.9-11.1-13C634.8,283,635.5,277.8,638.9,272.5z"/>
</g>
</svg>
