<?xml version="1.0" encoding="utf-8"?>
<!-- Generator: Adobe Illustrator 24.2.1, SVG Export Plug-In . SVG Version: 6.00 Build 0)  -->
<svg version="1.1" id="Layer_1" xmlns="http://www.w3.org/2000/svg" xmlns:xlink="http://www.w3.org/1999/xlink" x="0px" y="0px"
	 viewBox="0 0 899 1410" style="enable-background:new 0 0 899 1410;" xml:space="preserve">
<style type="text/css">
	.st0{fill:#FF4453;}
	.st1{clip-path:url(#SVGID_2_);}
	.st2{clip-path:url(#SVGID_4_);fill:#29ABE2;}
	.st3{clip-path:url(#SVGID_4_);fill:none;stroke:#29ABE2;stroke-miterlimit:10;}
</style>
<g>
	<path class="st0" d="M27.1,267.8l-4.2-4.4l50.9-47.7l4.2,4.4l-17.4,16.4l116.8,62.2l-44-98.3l-21.9-11.7L97,202.3l-4.2-4.4
		l50.9-47.8l4.2,4.4l-16.8,15.7l113.2,61.1L186.9,118l-18.7,17.6l-4.2-4.4l36.1-33.9l4.2,4.4l-12.3,11.5l77.9,153.4l-5.1,4.8
		l-121.7-65.7l56.7,126.6l-5.1,4.8L40.6,255.2L27.1,267.8z"/>
	<path class="st0" d="M301.1,219.8c-3.5-8.7-3.8-16.1-0.9-22.2c2.9-6.1,8.3-11.4,16.2-15.8c5.4-3,9.8-6,13.1-9.1
		c3.3-3.1,6.5-6.8,9.6-11.1l-4.6-11.5c-1.1-2.7-2.4-5.1-4-7.4c-1.6-2.2-3.5-4.3-5.8-6.2c-2.3-1.9-5.1-3-8.4-3.4
		c-3.3-0.4-6.8,0.2-10.6,1.7c-4.4,1.7-7.8,4.2-10.4,7.4c-2.6,3.2-3.3,6.3-2.1,9.3c0.6,1.5,2.1,3.2,4.4,5c2.4,1.7,4,3.7,4.9,5.9
		c0.8,2.1,0.8,4.2-0.1,6.4c-0.9,2.2-2.9,3.9-6,5.1c-3.5,1.4-6.4,1.5-8.9,0.3c-2.4-1.2-4.3-3.3-5.5-6.4c-2.6-6.6-1.8-13.8,2.6-21.5
		c4.4-7.8,11.1-13.4,20.2-17.1c12.6-5,23.2-5.4,31.7-1c8.5,4.4,15,12.1,19.4,23.2l17.5,43.9c1.8,4.4,4.1,7.2,7,8.4
		c2.9,1.2,5.9,1.2,9-0.1c2.2-0.9,4.4-2,6.7-3.5l3.1,5.2c-3.1,2.4-6,4.1-8.6,5.2c-7,2.8-13.1,3.8-18.3,3.2
		c-5.2-0.6-10.1-3.9-14.8-9.8l-0.9,0.3c-1.4,6.8-3.7,12.6-6.9,17.3c-3.2,4.8-8.1,8.5-14.9,11.2c-7.3,2.9-14,3.2-20.1,1
		C308.4,231.5,303.9,226.8,301.1,219.8z M318.3,210.9c4.4,11.1,11.8,14.6,22.1,10.5c3.8-1.5,6.8-4.4,9-8.6c2.2-4.2,3.6-9.1,4.3-14.6
		l-12.6-31.5c-2.6,3.6-5.2,6.6-7.9,9c-2.6,2.4-6.6,5.5-12,9.4C314.4,190.1,313.4,198.7,318.3,210.9z"/>
	<path class="st0" d="M407.1,205.6l-0.9-5.5l16.4-2.8L395,35.5l-16.4,2.8l-0.9-5.5l35.3-6L441.5,194l16.4-2.8l0.9,5.5L407.1,205.6z"
		/>
	<path class="st0" d="M467.2,192.7l0.3-5.6l16.6,1L494,24.3l-16.6-1l0.3-5.6l35.8,2.2l-7,117l9.8,0.6l34.3-37.9l-17.1-1l0.3-5.6
		l41.8,2.5l-0.3,5.6l-16.8-1l-25.8,28.6l40.2,64.8l14.7,0.9l-0.3,5.6l-57.4-3.5l0.3-5.6l19.3,1.2L519,143.2l-12.9-0.8l-2.8,46.8
		l16.6,1l-0.3,5.6L467.2,192.7z"/>
	<path class="st0" d="M596.7,207.3l13-38.7l4.1,1.4c-0.1,5.6,0.1,10.4,0.5,14.4c0.4,4,1.2,8.1,2.4,12.3c1.2,4.2,3,7.7,5.6,10.4
		c2.6,2.8,5.8,4.8,9.7,6.1c7.6,2.6,13.9,3.1,18.9,1.6c5-1.5,8.4-4.9,10.2-10.4c1.8-5.3,1.3-10.2-1.6-14.7c-2.9-4.5-8.8-10-17.9-16.7
		c-4.3-3.1-7.8-6-10.5-8.6c-2.7-2.6-5.1-5.6-7.2-9c-2.1-3.3-3.2-6.9-3.5-10.8c-0.3-3.9,0.4-8.1,2-12.8c2.7-7.9,7.4-13.4,14.3-16.4
		c6.9-3,13.9-3.3,21.1-0.9c5.4,1.8,10.7,4.9,16,9.2c2.7,2.1,4.5,3.4,5.6,3.8c3.6,1.2,7,0.4,10-2.3l3.9,1.3l-10.5,31.2l-4.4-1.5
		c-0.2-6.9-1.2-13-2.8-18.1c-1.4-4.5-3.7-8.2-6.8-11.1c-3.1-2.9-7.6-5.3-13.5-7.3c-4.3-1.4-8.1-1.2-11.6,0.6c-3.4,1.9-5.7,4.6-7,8.2
		c-0.8,2.4-1.1,4.6-0.9,6.7c0.2,2.1,0.6,4,1.4,5.7c0.7,1.7,2.1,3.6,4.1,5.6c2,2.1,3.9,3.9,5.8,5.5c1.9,1.6,4.6,3.8,8,6.4
		c10.5,8.1,17.5,15.2,20.9,21.5c3.4,6.2,3.7,13.3,1.1,21.3c-3,8.9-8.4,15.1-16.2,18.5c-7.8,3.5-17.9,3.1-30.2-1
		c-4.9-1.7-9.9-4.3-14.9-7.8c-3.3-2.3-6.3-3.8-8.8-4.7c-2.4-0.8-4.5,0-6.5,2.4L596.7,207.3z"/>
	<path class="st0" d="M638.9,272.5c2.1-3.2,4.7-5.2,7.9-6.1c3.2-0.8,6.4-0.2,9.6,1.9c2.3,1.5,3.7,3.3,4.1,5.6c0.5,2.2,0.1,4.3-1,6.1
		c-0.8,1.3-2.2,2.8-4.2,4.5c-1.9,1.6-3.3,3.2-4.2,4.6c-2.1,3.3-0.9,6.4,3.6,9.3c3.4,2.2,7.2,2.4,11.4,0.8c4.2-1.6,8.9-4.5,14-8.6
		l37.6-29.6l19.9-106.4l-11.7-7.5l3-4.7l45.1,29l-3,4.7l-16-10.3l-14.6,77.3l60.6-47.7l-12.1-7.8l3-4.7l30.3,19.5l-3,4.7l-12.7-8.2
		l-121.3,95.3c-2.5,1.9-4.6,3.5-6.3,4.7c-1.7,1.2-4,2.4-6.7,3.8c-2.7,1.4-5.3,2.2-7.6,2.5c-2.3,0.3-5,0.2-8-0.4
		c-3-0.6-6-1.8-8.8-3.7c-5.5-3.5-9.2-7.9-11.1-13C634.8,283,635.5,277.8,638.9,272.5z"/>
</g>
<g>
	<g>
		<defs>
			<rect id="SVGID_1_" x="23" y="-163" width="947" height="1867"/>
		</defs>
		<clipPath id="SVGID_2_">
			<use xlink:href="#SVGID_1_"  style="overflow:visible;"/>
		</clipPath>
		<g class="st1">
			<defs>
				<rect id="SVGID_3_" x="23" y="-163" width="947" height="1867"/>
			</defs>
			<clipPath id="SVGID_4_">
				<use xlink:href="#SVGID_3_"  style="overflow:visible;"/>
			</clipPath>
			<path class="st2" d="M680.1,648.7c0,75.1-69.4,136-154.9,136c-85.6,0-154.9-60.9-154.9-136c0-75.1,69.4-136,154.9-136
				C610.7,512.7,680.1,573.6,680.1,648.7"/>
			<ellipse class="st3" cx="525.2" cy="648.7" rx="154.9" ry="136"/>
			<path class="st2" d="M822.4,994.4c0,156.4-141.9,283.2-317,283.2c-175.1,0-317-126.8-317-283.2s141.9-283.2,317-283.2
				C680.5,711.2,822.4,838,822.4,994.4"/>
			<ellipse class="st3" cx="505.4" cy="994.4" rx="317" ry="283.2"/>
			<path class="st2" d="M633.8,724.3c11.6-31,48.2-46.7,77.1-66.3c37.3-25.3,65.2-61.8,78.2-102.4c6.2-19.3,12.4-42.9,33.5-49
				c5.7-1.6,13.2-0.9,15.6,4c1.1,2.3,0.8,4.9,0.5,7.3c-3.4,21.9-13,42.6-18.9,64.1c-10.2,37.1-10.3,78.6-35.9,109
				c-30.5,36.3-87.8,44.9-123.3,77.2"/>
			<path class="st2" d="M635.1,724.7c6.9-18.3,23.1-31.5,39.8-42.5c8.7-5.7,17.8-11.1,26.7-16.6c9.3-5.8,18.2-12,26.5-18.9
				c17.2-14.3,31.9-31.2,43.3-49.8c5.7-9.2,10.5-18.8,14.5-28.7c3.7-9.2,6.3-18.7,9.6-28c3-8.3,6.7-16.8,13-23.6
				c3-3.1,6.5-5.8,10.6-7.6c4.2-1.9,9.4-3,13.9-1.4c6.4,2.3,4.7,8.9,3.8,13.8c-1.1,6.1-2.7,12.1-4.5,18.1
				c-3.6,12-8.2,23.8-11.9,35.8c-6.5,21.2-9.1,43-14.3,64.5c-5,20.5-12.8,40.7-28.7,56.5c-14.3,14.2-32.9,23.8-51.4,32.7
				c-18.8,9-38.1,17.4-54.9,29.4c-4,2.9-7.9,5.9-11.5,9.2c-1.2,1,0.6,2.7,1.8,1.6c15.4-14,34.8-23.5,54-32.5
				c18.9-9,38.4-17.7,54.6-30.6c8.3-6.5,15.5-14.1,21.1-22.6c6.1-9.2,10.4-19.2,13.7-29.5c6.7-21.3,9.2-43.4,14.4-65
				c2.9-12,7.1-23.7,11.1-35.4c4.1-11.9,8.1-24,9.7-36.4c0.4-2.7,0.4-5.5-1.3-7.9c-1.2-1.7-3-2.9-5-3.6c-4.5-1.6-9.7-0.9-14,0.8
				c-8.9,3.3-15.2,10-19.6,17.6c-4.8,8.1-7.7,17.1-10.5,25.9c-3.2,10.1-6.8,20.1-11.5,29.8c-9.7,19.8-23,38.1-39.2,54
				c-8.1,8-17,15.4-26.5,22c-8.7,6.1-17.9,11.5-26.9,17.1c-17.4,10.7-35.4,22.2-46.5,38.9c-2.6,4-4.8,8.2-6.4,12.6
				C632.1,725.4,634.5,726,635.1,724.7"/>
			<path class="st2" d="M380.5,646c-11.7-41.1-16.9-84.5-8.1-126.2c8.7-41.7,32.5-81.8,70.2-106.8c12.1-8,25.5-14.4,36.8-23.3
				s20.7-21.1,21.1-34.7c0.1-3.4-0.5-6.9-2.6-9.7c-1.7-2.2-4.1-3.7-6.7-4.9c-15.3-7.5-34.5-6-50.3,0.6
				c-15.8,6.6-28.7,17.9-40.1,29.9c-49.3,51.6-76.5,120.4-74.5,188.8s32.9,135.8,85.1,185"/>
			<path class="st2" d="M381.7,645.7c-8.8-31.2-14-63.6-12-95.9c1.7-28.4,9.2-56.6,23.7-81.9c6.7-11.8,14.9-22.9,24.6-32.9
				c10.1-10.4,21.8-19.2,34.6-26.8c13.3-7.9,27.4-15.3,37.4-26.7c4.4-5,8.1-10.7,10.1-16.9c1.9-5.8,2.9-13.2-0.3-18.7
				c-3.3-5.7-11.5-8.5-18-10.1c-7.1-1.7-14.6-1.9-21.9-1c-15.2,1.9-28.7,8.7-40.4,17.5c-11.9,9-22,19.9-31.4,31.1
				c-9.4,11.1-17.7,22.9-25.1,35.2c-14.8,24.6-25.5,51.2-31.7,78.6c-6.2,27.3-7.9,55.3-4.7,83c3.1,27.4,10.7,54.4,22.4,79.8
				c11.7,25.4,27.4,49.2,46.7,70.4c4.7,5.2,9.7,10.2,14.8,15.1c1.1,1.1,2.9-0.6,1.8-1.6c-20.8-19.6-38.2-42.1-51.7-66.4
				c-13.5-24.3-23.2-50.4-28.4-77.2c-5.3-27-6.1-54.7-2.2-81.9c3.9-27.5,12.3-54.5,24.8-79.7c12.5-25.1,29-48.7,49.2-69.3
				c10.2-10.4,21.7-20.2,35.6-26.5c13.6-6.2,30-8.5,44.7-4c3.7,1.2,7.7,2.7,10.6,5.1c3.3,2.7,4.4,6.4,4.4,10.4
				c0,6.7-2.4,13.2-6.1,18.9c-8,12.5-21.1,20.8-34.2,28.4c-12.7,7.5-25,15.1-35.7,24.8c-9.9,9-18.5,19.1-25.8,30
				c-15.2,22.7-24.5,48.4-28.4,74.7c-4.6,30.8-2.1,62.2,4.5,92.6c1.6,7.5,3.5,15,5.6,22.5C379.7,647.8,382.1,647.2,381.7,645.7"/>
			<path class="st2" d="M207.8,1094.1c3.7,71.2-28.9,143.3-86.6,191.5c-21.5,18-46.7,33.1-62.7,55.3c-11.1,15.4-15,39.8,2.2,49.4
				c10.7,5.9,25.1,2.9,35.1-4c10-6.9,16.6-17,23.4-26.5c49-68.3,122.6-121.7,206.6-150.1"/>
			<path class="st2" d="M206.5,1094.1c1.1,22.1-1.2,44.3-6.7,65.8c-5.5,21.5-14.2,42.4-25.8,61.9c-11.6,19.5-26,37.5-42.9,53.4
				c-17.5,16.4-38.3,29.5-56,45.7c-14.8,13.5-29.4,31.1-27.1,51.3c0.9,8.4,5.6,16.2,14.1,20c10.4,4.6,22.9,2,32.2-3.5
				c10.5-6.3,17.5-16.2,24.2-25.7c6.6-9.2,13.5-18.3,20.9-27c14.8-17.4,31.2-33.6,49-48.4c17.8-14.9,37.1-28.3,57.4-40.2
				c20.3-11.9,41.8-22.2,64.1-30.8c5.4-2.1,10.9-4,16.3-5.9c1.5-0.5,0.9-2.7-0.7-2.2c-22.4,7.6-44.1,16.9-64.7,27.8
				c-20.5,10.8-40,23.3-58.3,37c-18.4,13.9-35.6,29.2-51.2,45.7c-7.7,8.2-15.1,16.6-22,25.3c-7.2,9-13.4,18.6-20.6,27.6
				c-7.2,9.1-16.4,17.3-28.8,19.7c-10.5,2-21.6-1.4-26.7-10.4c-4.3-7.7-3.5-17.2-1-25.2c3.1-9.7,9.3-18,16.5-25.7
				c16.4-17.4,37.3-30.4,55.5-45.9c17.4-14.8,32.4-31.9,44.8-50.4c12.5-18.7,22.3-38.8,29.1-59.8c6.7-20.8,10.5-42.4,11-64.1
				c0.1-5.4,0-10.7-0.2-16.1C208.9,1092.6,206.4,1092.6,206.5,1094.1"/>
			<path class="st2" d="M676.3,1230.9c26.4-2.7,50.7,14.2,66.3,33.8c15.6,19.6,25.6,42.6,42.3,61.4c8.5,9.5,19.1,18.1,32.1,21.1
				c13,3,28.7-0.9,35.3-11.5c5.9-9.4,3.5-21.5-2.4-30.9c-5.9-9.4-14.8-16.8-22.8-24.8c-45.1-44.9-61.1-112.3-40.5-170.1"/>
			<path class="st2" d="M676.3,1232.1c16.6-1.6,32.4,4.6,45.1,13.9c13.8,10.1,23.7,23.4,32.5,37.2c9.3,14.5,17.6,29.6,29.1,42.9
				c10,11.5,23.7,22.5,40.6,23.4c7.2,0.4,14.7-1.1,20.8-4.7c6.5-3.8,10.8-9.8,12-16.7c1.3-7.7-0.9-15.7-4.8-22.6
				c-4.3-7.3-10.6-13.5-16.8-19.5c-5.9-5.7-11.7-11.4-16.9-17.6c-4.9-5.9-9.4-12.1-13.5-18.5c-8.1-12.9-14.3-26.8-18.6-41.1
				c-4.3-14.4-6.6-29.2-6.9-44c-0.3-14.8,1.5-29.6,5.5-43.9c1-3.5,2.1-7.1,3.3-10.5c0.5-1.4-1.9-2-2.4-0.6c-5,14-7.8,28.6-8.7,43.2
				c-0.8,14.7,0.4,29.5,3.5,43.9c3.1,14.4,8.2,28.5,15,41.8c6.8,13.3,15.5,25.8,25.9,37.1c5.7,6.1,12,11.7,17.8,17.7
				c5.9,6.1,11.4,12.8,13.9,20.8c2.4,7.3,2.3,15.6-2.4,22.2c-4,5.6-10.7,8.9-17.7,10.2c-16.4,3.1-31.4-5.6-42.2-16.1
				c-12.4-12.1-21.1-27-30-41.4c-8.6-13.9-17.7-27.9-30.4-39.1c-11.5-10.2-26-18.4-42.2-20.1c-3.9-0.4-7.8-0.4-11.7,0
				C674.7,1229.9,674.7,1232.2,676.3,1232.1"/>
		</g>
	</g>
</g>
</svg>
