<?xml version="1.0" encoding="utf-8"?>
<!-- Generator: Adobe Illustrator 24.2.1, SVG Export Plug-In . SVG Version: 6.00 Build 0)  -->
<svg version="1.1" id="Layer_1" xmlns="http://www.w3.org/2000/svg" xmlns:xlink="http://www.w3.org/1999/xlink" x="0px" y="0px"
	 viewBox="0 0 899 1165" style="enable-background:new 0 0 899 1165;" xml:space="preserve">
<style type="text/css">
	.st0{fill:#00CCB4;}
	.st1{clip-path:url(#SVGID_2_);}
	.st2{clip-path:url(#SVGID_4_);fill:#29ABE2;}
	.st3{clip-path:url(#SVGID_4_);fill:none;stroke:#29ABE2;stroke-miterlimit:10;}
</style>
<g>
	<path class="st0" d="M27.1,267.8l-4.2-4.4l50.9-47.7l4.2,4.4l-17.4,16.4l116.8,62.2l-44-98.3l-21.9-11.7L97,202.3l-4.2-4.4
		l50.9-47.8l4.2,4.4l-16.8,15.7l113.2,61.1L186.9,118l-18.7,17.6l-4.2-4.4l36.1-33.9l4.2,4.4l-12.3,11.5l77.9,153.4l-5.1,4.8
		l-121.7-65.7l56.7,126.6l-5.1,4.8L40.6,255.2L27.1,267.8z"/>
	<path class="st0" d="M301.1,219.8c-3.5-8.7-3.8-16.1-0.9-22.2c2.9-6.1,8.3-11.4,16.2-15.8c5.4-3,9.8-6,13.1-9.1
		c3.3-3.1,6.5-6.8,9.6-11.1l-4.6-11.5c-1.1-2.7-2.4-5.1-4-7.4c-1.6-2.2-3.5-4.3-5.8-6.2c-2.3-1.9-5.1-3-8.4-3.4
		c-3.3-0.4-6.8,0.2-10.6,1.7c-4.4,1.7-7.8,4.2-10.4,7.4c-2.6,3.2-3.3,6.3-2.1,9.3c0.6,1.5,2.1,3.2,4.4,5c2.4,1.7,4,3.7,4.9,5.9
		c0.8,2.1,0.8,4.2-0.1,6.4c-0.9,2.2-2.9,3.9-6,5.1c-3.5,1.4-6.4,1.5-8.9,0.3c-2.4-1.2-4.3-3.3-5.5-6.4c-2.6-6.6-1.8-13.8,2.6-21.5
		c4.4-7.8,11.1-13.4,20.2-17.1c12.6-5,23.2-5.4,31.7-1c8.5,4.4,15,12.1,19.4,23.2l17.5,43.9c1.8,4.4,4.1,7.2,7,8.4
		c2.9,1.2,5.9,1.2,9-0.1c2.2-0.9,4.4-2,6.7-3.5l3.1,5.2c-3.1,2.4-6,4.1-8.6,5.2c-7,2.8-13.1,3.8-18.3,3.2
		c-5.2-0.6-10.1-3.9-14.8-9.8l-0.9,0.3c-1.4,6.8-3.7,12.6-6.9,17.3c-3.2,4.8-8.1,8.5-14.9,11.2c-7.3,2.9-14,3.2-20.1,1
		C308.4,231.5,303.9,226.8,301.1,219.8z M318.3,210.9c4.4,11.1,11.8,14.6,22.1,10.5c3.8-1.5,6.8-4.4,9-8.6c2.2-4.2,3.6-9.1,4.3-14.6
		l-12.6-31.5c-2.6,3.6-5.2,6.6-7.9,9c-2.6,2.4-6.6,5.5-12,9.4C314.4,190.1,313.4,198.7,318.3,210.9z"/>
	<path class="st0" d="M407.1,205.6l-0.9-5.5l16.4-2.8L395,35.5l-16.4,2.8l-0.9-5.5l35.3-6L441.5,194l16.4-2.8l0.9,5.5L407.1,205.6z"
		/>
	<path class="st0" d="M467.2,192.7l0.3-5.6l16.6,1L494,24.3l-16.6-1l0.3-5.6l35.8,2.2l-7,117l9.8,0.6l34.3-37.9l-17.1-1l0.3-5.6
		l41.8,2.5l-0.3,5.6l-16.8-1l-25.8,28.6l40.2,64.8l14.7,0.9l-0.3,5.6l-57.4-3.5l0.3-5.6l19.3,1.2L519,143.2l-12.9-0.8l-2.8,46.8
		l16.6,1l-0.3,5.6L467.2,192.7z"/>
	<path class="st0" d="M596.7,207.3l13-38.7l4.1,1.4c-0.1,5.6,0.1,10.4,0.5,14.4c0.4,4,1.2,8.1,2.4,12.3c1.2,4.2,3,7.7,5.6,10.4
		c2.6,2.8,5.8,4.8,9.7,6.1c7.6,2.6,13.9,3.1,18.9,1.6c5-1.5,8.4-4.9,10.2-10.4c1.8-5.3,1.3-10.2-1.6-14.7c-2.9-4.5-8.8-10-17.9-16.7
		c-4.3-3.1-7.8-6-10.5-8.6c-2.7-2.6-5.1-5.6-7.2-9c-2.1-3.3-3.2-6.9-3.5-10.8c-0.3-3.9,0.4-8.1,2-12.8c2.7-7.9,7.4-13.4,14.3-16.4
		c6.9-3,13.9-3.3,21.1-0.9c5.4,1.8,10.7,4.9,16,9.2c2.7,2.1,4.5,3.4,5.6,3.8c3.6,1.2,7,0.4,10-2.3l3.9,1.3l-10.5,31.2l-4.4-1.5
		c-0.2-6.9-1.2-13-2.8-18.1c-1.4-4.5-3.7-8.2-6.8-11.1c-3.1-2.9-7.6-5.3-13.5-7.3c-4.3-1.4-8.1-1.2-11.6,0.6c-3.4,1.9-5.7,4.6-7,8.2
		c-0.8,2.4-1.1,4.6-0.9,6.7c0.2,2.1,0.6,4,1.4,5.7c0.7,1.7,2.1,3.6,4.1,5.6c2,2.1,3.9,3.9,5.8,5.5c1.9,1.6,4.6,3.8,8,6.4
		c10.5,8.1,17.5,15.2,20.9,21.5c3.4,6.2,3.7,13.3,1.1,21.3c-3,8.9-8.4,15.1-16.2,18.5c-7.8,3.5-17.9,3.1-30.2-1
		c-4.9-1.7-9.9-4.3-14.9-7.8c-3.3-2.3-6.3-3.8-8.8-4.7c-2.4-0.8-4.5,0-6.5,2.4L596.7,207.3z"/>
	<path class="st0" d="M638.9,272.5c2.1-3.2,4.7-5.2,7.9-6.1c3.2-0.8,6.4-0.2,9.6,1.9c2.3,1.5,3.7,3.3,4.1,5.6c0.5,2.2,0.1,4.3-1,6.1
		c-0.8,1.3-2.2,2.8-4.2,4.5c-1.9,1.6-3.3,3.2-4.2,4.6c-2.1,3.3-0.9,6.4,3.6,9.3c3.4,2.2,7.2,2.4,11.4,0.8c4.2-1.6,8.9-4.5,14-8.6
		l37.6-29.6l19.9-106.4l-11.7-7.5l3-4.7l45.1,29l-3,4.7l-16-10.3l-14.6,77.3l60.6-47.7l-12.1-7.8l3-4.7l30.3,19.5l-3,4.7l-12.7-8.2
		l-121.3,95.3c-2.5,1.9-4.6,3.5-6.3,4.7c-1.7,1.2-4,2.4-6.7,3.8c-2.7,1.4-5.3,2.2-7.6,2.5c-2.3,0.3-5,0.2-8-0.4
		c-3-0.6-6-1.8-8.8-3.7c-5.5-3.5-9.2-7.9-11.1-13C634.8,283,635.5,277.8,638.9,272.5z"/>
</g>
<g>
	<g>
		<defs>
			
				<rect id="SVGID_1_" x="221.1" y="143.6" transform="matrix(0.3248 -0.9458 0.9458 0.3248 -435.5065 1104.8168)" width="669.8" height="1427.6"/>
		</defs>
		<clipPath id="SVGID_2_">
			<use xlink:href="#SVGID_1_"  style="overflow:visible;"/>
		</clipPath>
		<g class="st1">
			<defs>
				
					<rect id="SVGID_3_" x="221.1" y="143.6" transform="matrix(0.3248 -0.9458 0.9458 0.3248 -435.5065 1104.8168)" width="669.8" height="1427.6"/>
			</defs>
			<clipPath id="SVGID_4_">
				<use xlink:href="#SVGID_3_"  style="overflow:visible;"/>
			</clipPath>
			<path class="st2" d="M601.9,1010.5c-54.3-18.7-82.5-80.2-62.8-137.4c19.7-57.2,79.6-88.5,134-69.8
				c54.3,18.7,82.5,80.2,62.8,137.4C716.2,997.9,656.3,1029.2,601.9,1010.5"/>
			
				<ellipse transform="matrix(0.3248 -0.9458 0.9458 0.3248 -427.2592 1215.2476)" class="st3" cx="637.5" cy="906.9" rx="109.6" ry="104"/>
			<path class="st2" d="M319.3,1019.8c-113.1-38.8-172.2-165.3-132-282.4c40.2-117.1,164.5-180.5,277.6-141.7s172.2,165.3,132,282.4
				C556.7,995.2,432.4,1058.7,319.3,1019.8"/>
			
				<ellipse transform="matrix(0.3248 -0.9458 0.9458 0.3248 -499.2573 916.2164)" class="st3" cx="392.1" cy="807.8" rx="224.2" ry="216.6"/>
			<path class="st2" d="M557.9,960.8c19.8,15.4,22.7,43.8,30.2,68c9.7,31.2,29.7,59,56.1,77.8c12.5,9,28.2,19,27.8,34.6
				c-0.1,4.2-2.4,9.1-6.5,9.5c-1.9,0.2-3.7-0.6-5.4-1.5c-15.1-7.7-27.8-19.3-42-28.6c-24.5-16.1-54.5-26.4-70.6-51.1
				c-19.2-29.4-12.3-69.9-27.5-101.7"/>
			<path class="st2" d="M557.4,961.5c11.6,9.1,17.5,23.2,21.6,37.2c2.1,7.3,3.9,14.7,5.9,22c2.1,7.6,4.5,15.2,7.6,22.4
				c6.4,15.1,15.2,29.1,26,41.3c5.3,6.1,11.2,11.7,17.4,16.8c5.8,4.8,12.1,8.8,18.1,13.4c5.3,4.1,10.7,8.6,14,14.5
				c1.6,2.8,2.7,5.8,3,9c0.4,3.3,0,7-2.2,9.6c-3.1,3.7-7.5,0.9-10.8-0.9c-4.1-2.3-8.1-4.8-12-7.5c-7.9-5.4-15.3-11.4-23.2-16.8
				c-13.8-9.6-29-16.8-43.3-25.6c-13.7-8.4-26.5-18.7-34.3-33.2c-7-13.1-9.7-27.9-11.8-42.5c-2.2-14.8-3.8-29.8-8.6-44
				c-1.1-3.4-2.5-6.7-4-9.9c-0.5-1-2.1-0.2-1.6,0.8c6.6,13.8,9,29.1,11.1,44.2c2.1,14.9,4,30.1,9.6,44.1c2.8,7.1,6.6,13.8,11.5,19.7
				c5.2,6.3,11.5,11.7,18.2,16.5c13.8,9.8,29.3,16.9,43.7,25.8c8,4.9,15.5,10.6,23.1,16.2c7.7,5.7,15.5,11.4,24.1,15.5
				c1.9,0.9,3.9,1.6,6,1.1c1.5-0.4,2.8-1.3,3.8-2.4c2.2-2.6,2.9-6.2,2.7-9.6c-0.4-6.8-3.8-12.7-8.2-17.5
				c-4.8-5.2-10.6-9.4-16.3-13.4c-6.6-4.7-13-9.5-18.9-15.1c-12.1-11.4-22.3-24.9-30.1-39.7c-3.9-7.4-7.2-15.2-9.8-23.2
				c-2.4-7.3-4.2-14.8-6.2-22.2c-3.7-14.3-7.9-29.2-17.4-40.8c-2.3-2.7-4.8-5.2-7.6-7.4C557.5,959.3,556.5,960.8,557.4,961.5"/>
			<path class="st2" d="M672.7,810.7c32.4,2.4,65,9.7,93.1,25.9c28.2,16.2,51.7,42,61.1,73.5c3,10.1,4.5,20.6,8.4,30.4
				s10.5,19.1,20.3,22.7c2.4,0.9,5.1,1.4,7.6,0.7c1.9-0.6,3.6-1.8,5.1-3.2c8.9-8.4,12.3-21.6,11.1-33.8
				c-1.2-12.2-6.4-23.6-12.4-34.2c-26-45.8-69.5-81-119.4-96.7c-49.9-15.7-105.8-11.7-153.4,10.9"/>
			<path class="st2" d="M672.6,811.6c24.6,1.9,49.2,6.4,72.1,15.8c20.2,8.2,38.8,20.2,53.8,36.2c7,7.4,13.1,15.7,18.1,24.6
				c5.2,9.4,8.9,19.3,11.4,29.8c2.6,10.8,4.8,22.1,10.7,31.7c2.6,4.2,5.9,8.1,9.9,11c3.8,2.7,8.8,5.2,13.6,4.5
				c4.9-0.8,8.8-5.6,11.4-9.5c2.9-4.3,4.8-9.3,5.8-14.4c2.1-10.6,0.3-21.4-3.4-31.3c-3.8-10.2-9.3-19.7-15.2-28.7
				c-5.9-9-12.5-17.6-19.7-25.6c-14.4-16-31.2-29.8-49.6-40.7c-18.3-10.9-38.2-19-58.9-23.8c-20.5-4.7-41.8-6.3-62.8-4.8
				c-21.1,1.5-41.9,6.1-61.7,13.8c-4.8,1.9-9.6,3.9-14.3,6.2c-1,0.5-0.3,2.1,0.8,1.6c19-9,39.2-15.1,59.9-18.1
				c20.7-3,41.8-3,62.4,0.1c20.7,3.1,40.9,9.5,59.7,18.8c19,9.4,36.6,21.8,51.9,36.4c15.3,14.6,28.5,31.5,38.8,50.1
				c5.2,9.4,9.6,19.5,11,30.4c1.3,10.6-0.7,22.2-7.4,30.9c-1.7,2.2-3.7,4.5-6.1,5.9c-2.7,1.6-5.7,1.3-8.5,0.4
				c-4.8-1.7-9-4.9-12.3-8.8c-7.2-8.4-10.2-19.3-12.7-29.9c-2.5-10.4-5.2-20.5-9.7-30.1c-4.2-8.9-9.6-17.1-15.8-24.7
				c-12.9-15.8-29.4-28.4-47.5-37.6c-21.2-10.7-44.5-16.8-68-20c-5.8-0.8-11.7-1.4-17.6-1.8C671.6,809.8,671.5,811.5,672.6,811.6"/>
			<path class="st2" d="M388.4,583.9c-52.3-15.2-97-54.9-118.6-105.5c-8-18.9-13.2-39.4-25.6-55.7c-8.6-11.3-25.3-19.9-36.2-10.8
				c-6.8,5.7-7.9,16.1-5.2,24.5c2.7,8.4,8.5,15.3,13.8,22.3c38.1,49.8,59.9,112.2,61.1,175.5"/>
			<path class="st2" d="M388.7,583.1c-16.2-4.7-31.8-11.8-46.1-20.8c-14.3-9.1-27.4-20.1-38.8-32.6c-11.4-12.6-21.2-26.7-28.8-41.9
				c-7.9-15.8-12.5-33-20.2-48.8c-6.4-13.2-15.7-27.4-30.9-30.9c-6.3-1.5-13-0.3-17.7,4.5c-5.7,5.8-6.7,14.8-4.8,22.4
				c2.1,8.6,7.7,15.7,13,22.5c5.2,6.7,10.1,13.6,14.7,20.7c9.2,14.2,17.1,29.2,23.7,44.8c6.6,15.6,12,31.8,15.9,48.4
				c3.9,16.6,6.5,33.5,7.5,50.5c0.3,4.1,0.4,8.3,0.5,12.4c0,1.1,1.8,1.3,1.8,0.1c-0.3-16.9-2.1-33.7-5.2-50.2
				c-3.1-16.4-7.6-32.5-13.4-48.2c-5.8-15.8-12.9-31.1-21.3-45.6c-4.1-7.2-8.6-14.2-13.3-21c-4.9-7-10.4-13.6-15.2-20.6
				c-4.9-7.1-8.8-15.2-7.6-24.2c1-7.5,6-14.1,13.7-15.3c6.6-1,13.2,1.9,18.5,5.6c6.3,4.5,10.9,10.7,14.8,17.4
				c8.8,15.3,13.4,32.5,20.5,48.6c6.7,15.3,15.6,29.6,26.2,42.5c10.6,13,23,24.5,36.5,34.3c13.5,9.7,28.3,17.6,43.8,23.3
				c3.8,1.4,7.7,2.7,11.7,3.8C389.2,585.1,389.8,583.4,388.7,583.1"/>
			<path class="st2" d="M181.8,863.3c-4.1,18.3-21.9,30.4-39.7,35.9c-17.8,5.5-36.7,6.5-54.1,13c-8.8,3.3-17.5,8.3-22.7,16.2
				c-5.2,8-5.9,19.4,0.2,26.5c5.4,6.3,14.8,7.7,22.9,6.1c8.1-1.6,15.6-5.8,23.2-9.1c42.8-19,95.2-13,132.3,15.2"/>
			<path class="st2" d="M180.9,863.1c-2.6,11.5-10.8,20.5-20.4,26.7c-10.5,6.7-22.3,10.1-34.4,12.5c-12.6,2.6-25.5,4.4-37.7,8.9
				c-10.6,3.8-21.7,10.3-26.2,21.3c-1.9,4.7-2.5,10.1-1.4,15.1c1.2,5.3,4.6,9.7,9.3,12.2c5.3,2.8,11.6,3.3,17.4,2.4
				c6.3-1,12.2-3.7,17.9-6.4c5.4-2.5,10.9-5,16.6-7c5.4-1.8,10.9-3.3,16.5-4.4c11.2-2.2,22.6-2.9,34-2.3c11.4,0.7,22.6,2.8,33.4,6.3
				c10.8,3.5,21.1,8.4,30.5,14.6c2.3,1.5,4.6,3.1,6.8,4.8c0.9,0.7,1.9-0.8,1-1.5c-9-6.8-18.9-12.3-29.3-16.5
				c-10.4-4.2-21.4-7.1-32.5-8.6c-11.1-1.5-22.5-1.6-33.7-0.3c-11.2,1.3-22.2,4-32.8,8.1c-5.7,2.3-11.2,5.1-16.9,7.5
				c-5.8,2.5-11.9,4.4-18.2,4.2c-5.8-0.2-11.8-2.3-15.5-7.1c-3.1-4-4-9.4-3.3-14.4c1.6-11.7,11.3-19.6,21.4-24.2
				c11.6-5.3,24.4-7.4,36.8-9.8c12.1-2.3,24.2-4.9,35.3-10.6c10-5.2,19.2-12.8,24.2-23.2c1.2-2.5,2.1-5.1,2.7-7.8
				C182.8,862.5,181.2,861.9,180.9,863.1"/>
		</g>
	</g>
</g>
</svg>
