<?xml version="1.0" encoding="utf-8"?>
<!-- Generator: Adobe Illustrator 24.2.1, SVG Export Plug-In . SVG Version: 6.00 Build 0)  -->
<svg version="1.1" id="Layer_1" xmlns="http://www.w3.org/2000/svg" xmlns:xlink="http://www.w3.org/1999/xlink" x="0px" y="0px"
	 viewBox="0 0 899 1410" style="enable-background:new 0 0 899 1410;" xml:space="preserve">
<style type="text/css">
	.st0{clip-path:url(#SVGID_2_);}
	.st1{clip-path:url(#SVGID_4_);fill:#29ABE2;}
	.st2{clip-path:url(#SVGID_6_);fill:none;stroke:#29ABE2;stroke-miterlimit:10;}
	.st3{clip-path:url(#SVGID_8_);fill:#29ABE2;}
	.st4{clip-path:url(#SVGID_10_);fill:none;stroke:#29ABE2;stroke-miterlimit:10;}
	.st5{clip-path:url(#SVGID_12_);fill:#29ABE2;}
	.st6{clip-path:url(#SVGID_14_);fill:#29ABE2;}
	.st7{clip-path:url(#SVGID_16_);fill:#29ABE2;}
	.st8{clip-path:url(#SVGID_18_);fill:#29ABE2;}
	.st9{clip-path:url(#SVGID_20_);fill:#29ABE2;}
	.st10{clip-path:url(#SVGID_22_);fill:#29ABE2;}
	.st11{clip-path:url(#SVGID_24_);fill:#29ABE2;}
	.st12{clip-path:url(#SVGID_26_);fill:#29ABE2;}
	.st13{fill:#F0E6D5;stroke:#FF4453;stroke-width:2;stroke-miterlimit:10;}
	.st14{fill:#FF4453;}
</style>
<g>
	<g>
		<g>
			<defs>
				<rect id="SVGID_1_" x="23" y="-163" width="947" height="1867"/>
			</defs>
			<clipPath id="SVGID_2_">
				<use xlink:href="#SVGID_1_"  style="overflow:visible;"/>
			</clipPath>
			<g class="st0">
				<g>
					<defs>
						<rect id="SVGID_3_" x="23" y="-163" width="947" height="1867"/>
					</defs>
					<clipPath id="SVGID_4_">
						<use xlink:href="#SVGID_3_"  style="overflow:visible;"/>
					</clipPath>
					<path class="st1" d="M680.1,648.7c0,75.1-69.4,136-154.9,136c-85.6,0-154.9-60.9-154.9-136s69.4-136,154.9-136
						S680.1,573.6,680.1,648.7"/>
				</g>
				<g>
					<defs>
						<rect id="SVGID_5_" x="23" y="-163" width="947" height="1867"/>
					</defs>
					<clipPath id="SVGID_6_">
						<use xlink:href="#SVGID_5_"  style="overflow:visible;"/>
					</clipPath>
					<ellipse class="st2" cx="525.2" cy="648.7" rx="154.9" ry="136"/>
				</g>
				<g>
					<defs>
						<rect id="SVGID_7_" x="23" y="-163" width="947" height="1867"/>
					</defs>
					<clipPath id="SVGID_8_">
						<use xlink:href="#SVGID_7_"  style="overflow:visible;"/>
					</clipPath>
					<path class="st3" d="M822.4,994.4c0,156.4-141.9,283.2-317,283.2s-317-126.8-317-283.2s141.9-283.2,317-283.2
						C680.5,711.2,822.4,838,822.4,994.4"/>
				</g>
				<g>
					<defs>
						<rect id="SVGID_9_" x="23" y="-163" width="947" height="1867"/>
					</defs>
					<clipPath id="SVGID_10_">
						<use xlink:href="#SVGID_9_"  style="overflow:visible;"/>
					</clipPath>
					<ellipse class="st4" cx="505.4" cy="994.4" rx="317" ry="283.2"/>
				</g>
				<g>
					<defs>
						<rect id="SVGID_11_" x="23" y="-163" width="947" height="1867"/>
					</defs>
					<clipPath id="SVGID_12_">
						<use xlink:href="#SVGID_11_"  style="overflow:visible;"/>
					</clipPath>
					<path class="st5" d="M633.8,724.3c11.6-31,48.2-46.7,77.1-66.3c37.3-25.3,65.2-61.8,78.2-102.4c6.2-19.3,12.4-42.9,33.5-49
						c5.7-1.6,13.2-0.9,15.6,4c1.1,2.3,0.8,4.9,0.5,7.3c-3.4,21.9-13,42.6-18.9,64.1c-10.2,37.1-10.3,78.6-35.9,109
						c-30.5,36.3-87.8,44.9-123.3,77.2"/>
				</g>
				<g>
					<defs>
						<rect id="SVGID_13_" x="23" y="-163" width="947" height="1867"/>
					</defs>
					<clipPath id="SVGID_14_">
						<use xlink:href="#SVGID_13_"  style="overflow:visible;"/>
					</clipPath>
					<path class="st6" d="M635.1,724.7c6.9-18.3,23.1-31.5,39.8-42.5c8.7-5.7,17.8-11.1,26.7-16.6c9.3-5.8,18.2-12,26.5-18.9
						c17.2-14.3,31.9-31.2,43.3-49.8c5.7-9.2,10.5-18.8,14.5-28.7c3.7-9.2,6.3-18.7,9.6-28c3-8.3,6.7-16.8,13-23.6
						c3-3.1,6.5-5.8,10.6-7.6c4.2-1.9,9.4-3,13.9-1.4c6.4,2.3,4.7,8.9,3.8,13.8c-1.1,6.1-2.7,12.1-4.5,18.1
						c-3.6,12-8.2,23.8-11.9,35.8c-6.5,21.2-9.1,43-14.3,64.5c-5,20.5-12.8,40.7-28.7,56.5c-14.3,14.2-32.9,23.8-51.4,32.7
						c-18.8,9-38.1,17.4-54.9,29.4c-4,2.9-7.9,5.9-11.5,9.2c-1.2,1,0.6,2.7,1.8,1.6c15.4-14,34.8-23.5,54-32.5
						c18.9-9,38.4-17.7,54.6-30.6c8.3-6.5,15.5-14.1,21.1-22.6c6.1-9.2,10.4-19.2,13.7-29.5c6.7-21.3,9.2-43.4,14.4-65
						c2.9-12,7.1-23.7,11.1-35.4c4.1-11.9,8.1-24,9.7-36.4c0.4-2.7,0.4-5.5-1.3-7.9c-1.2-1.7-3-2.9-5-3.6c-4.5-1.6-9.7-0.9-14,0.8
						c-8.9,3.3-15.2,10-19.6,17.6c-4.8,8.1-7.7,17.1-10.5,25.9c-3.2,10.1-6.8,20.1-11.5,29.8c-9.7,19.8-23,38.1-39.2,54
						c-8.1,8-17,15.4-26.5,22c-8.7,6.1-17.9,11.5-26.9,17.1c-17.4,10.7-35.4,22.2-46.5,38.9c-2.6,4-4.8,8.2-6.4,12.6
						C632.1,725.4,634.5,726,635.1,724.7"/>
				</g>
				<g>
					<defs>
						<rect id="SVGID_15_" x="23" y="-163" width="947" height="1867"/>
					</defs>
					<clipPath id="SVGID_16_">
						<use xlink:href="#SVGID_15_"  style="overflow:visible;"/>
					</clipPath>
					<path class="st7" d="M380.5,646c-11.7-41.1-16.9-84.5-8.1-126.2c8.7-41.7,32.5-81.8,70.2-106.8c12.1-8,25.5-14.4,36.8-23.3
						s20.7-21.1,21.1-34.7c0.1-3.4-0.5-6.9-2.6-9.7c-1.7-2.2-4.1-3.7-6.7-4.9c-15.3-7.5-34.5-6-50.3,0.6s-28.7,17.9-40.1,29.9
						c-49.3,51.6-76.5,120.4-74.5,188.8s32.9,135.8,85.1,185"/>
				</g>
				<g>
					<defs>
						<rect id="SVGID_17_" x="23" y="-163" width="947" height="1867"/>
					</defs>
					<clipPath id="SVGID_18_">
						<use xlink:href="#SVGID_17_"  style="overflow:visible;"/>
					</clipPath>
					<path class="st8" d="M381.7,645.7c-8.8-31.2-14-63.6-12-95.9c1.7-28.4,9.2-56.6,23.7-81.9c6.7-11.8,14.9-22.9,24.6-32.9
						c10.1-10.4,21.8-19.2,34.6-26.8c13.3-7.9,27.4-15.3,37.4-26.7c4.4-5,8.1-10.7,10.1-16.9c1.9-5.8,2.9-13.2-0.3-18.7
						c-3.3-5.7-11.5-8.5-18-10.1c-7.1-1.7-14.6-1.9-21.9-1c-15.2,1.9-28.7,8.7-40.4,17.5c-11.9,9-22,19.9-31.4,31.1
						c-9.4,11.1-17.7,22.9-25.1,35.2c-14.8,24.6-25.5,51.2-31.7,78.6c-6.2,27.3-7.9,55.3-4.7,83c3.1,27.4,10.7,54.4,22.4,79.8
						c11.7,25.4,27.4,49.2,46.7,70.4c4.7,5.2,9.7,10.2,14.8,15.1c1.1,1.1,2.9-0.6,1.8-1.6c-20.8-19.6-38.2-42.1-51.7-66.4
						c-13.5-24.3-23.2-50.4-28.4-77.2c-5.3-27-6.1-54.7-2.2-81.9c3.9-27.5,12.3-54.5,24.8-79.7c12.5-25.1,29-48.7,49.2-69.3
						c10.2-10.4,21.7-20.2,35.6-26.5c13.6-6.2,30-8.5,44.7-4c3.7,1.2,7.7,2.7,10.6,5.1c3.3,2.7,4.4,6.4,4.4,10.4
						c0,6.7-2.4,13.2-6.1,18.9c-8,12.5-21.1,20.8-34.2,28.4c-12.7,7.5-25,15.1-35.7,24.8c-9.9,9-18.5,19.1-25.8,30
						c-15.2,22.7-24.5,48.4-28.4,74.7c-4.6,30.8-2.1,62.2,4.5,92.6c1.6,7.5,3.5,15,5.6,22.5C379.7,647.8,382.1,647.2,381.7,645.7"/>
				</g>
				<g>
					<defs>
						<rect id="SVGID_19_" x="23" y="-163" width="947" height="1867"/>
					</defs>
					<clipPath id="SVGID_20_">
						<use xlink:href="#SVGID_19_"  style="overflow:visible;"/>
					</clipPath>
					<path class="st9" d="M207.8,1094.1c3.7,71.2-28.9,143.3-86.6,191.5c-21.5,18-46.7,33.1-62.7,55.3c-11.1,15.4-15,39.8,2.2,49.4
						c10.7,5.9,25.1,2.9,35.1-4s16.6-17,23.4-26.5c49-68.3,122.6-121.7,206.6-150.1"/>
				</g>
				<g>
					<defs>
						<rect id="SVGID_21_" x="23" y="-163" width="947" height="1867"/>
					</defs>
					<clipPath id="SVGID_22_">
						<use xlink:href="#SVGID_21_"  style="overflow:visible;"/>
					</clipPath>
					<path class="st10" d="M206.5,1094.1c1.1,22.1-1.2,44.3-6.7,65.8s-14.2,42.4-25.8,61.9s-26,37.5-42.9,53.4
						c-17.5,16.4-38.3,29.5-56,45.7c-14.8,13.5-29.4,31.1-27.1,51.3c0.9,8.4,5.6,16.2,14.1,20c10.4,4.6,22.9,2,32.2-3.5
						c10.5-6.3,17.5-16.2,24.2-25.7c6.6-9.2,13.5-18.3,20.9-27c14.8-17.4,31.2-33.6,49-48.4c17.8-14.9,37.1-28.3,57.4-40.2
						c20.3-11.9,41.8-22.2,64.1-30.8c5.4-2.1,10.9-4,16.3-5.9c1.5-0.5,0.9-2.7-0.7-2.2c-22.4,7.6-44.1,16.9-64.7,27.8
						c-20.5,10.8-40,23.3-58.3,37c-18.4,13.9-35.6,29.2-51.2,45.7c-7.7,8.2-15.1,16.6-22,25.3c-7.2,9-13.4,18.6-20.6,27.6
						c-7.2,9.1-16.4,17.3-28.8,19.7c-10.5,2-21.6-1.4-26.7-10.4c-4.3-7.7-3.5-17.2-1-25.2c3.1-9.7,9.3-18,16.5-25.7
						c16.4-17.4,37.3-30.4,55.5-45.9c17.4-14.8,32.4-31.9,44.8-50.4c12.5-18.7,22.3-38.8,29.1-59.8c6.7-20.8,10.5-42.4,11-64.1
						c0.1-5.4,0-10.7-0.2-16.1C208.9,1092.6,206.4,1092.6,206.5,1094.1"/>
				</g>
				<g>
					<defs>
						<rect id="SVGID_23_" x="23" y="-163" width="947" height="1867"/>
					</defs>
					<clipPath id="SVGID_24_">
						<use xlink:href="#SVGID_23_"  style="overflow:visible;"/>
					</clipPath>
					<path class="st11" d="M676.3,1230.9c26.4-2.7,50.7,14.2,66.3,33.8c15.6,19.6,25.6,42.6,42.3,61.4c8.5,9.5,19.1,18.1,32.1,21.1
						s28.7-0.9,35.3-11.5c5.9-9.4,3.5-21.5-2.4-30.9s-14.8-16.8-22.8-24.8c-45.1-44.9-61.1-112.3-40.5-170.1"/>
				</g>
				<g>
					<defs>
						<rect id="SVGID_25_" x="23" y="-163" width="947" height="1867"/>
					</defs>
					<clipPath id="SVGID_26_">
						<use xlink:href="#SVGID_25_"  style="overflow:visible;"/>
					</clipPath>
					<path class="st12" d="M676.3,1232.1c16.6-1.6,32.4,4.6,45.1,13.9c13.8,10.1,23.7,23.4,32.5,37.2c9.3,14.5,17.6,29.6,29.1,42.9
						c10,11.5,23.7,22.5,40.6,23.4c7.2,0.4,14.7-1.1,20.8-4.7c6.5-3.8,10.8-9.8,12-16.7c1.3-7.7-0.9-15.7-4.8-22.6
						c-4.3-7.3-10.6-13.5-16.8-19.5c-5.9-5.7-11.7-11.4-16.9-17.6c-4.9-5.9-9.4-12.1-13.5-18.5c-8.1-12.9-14.3-26.8-18.6-41.1
						c-4.3-14.4-6.6-29.2-6.9-44c-0.3-14.8,1.5-29.6,5.5-43.9c1-3.5,2.1-7.1,3.3-10.5c0.5-1.4-1.9-2-2.4-0.6
						c-5,14-7.8,28.6-8.7,43.2c-0.8,14.7,0.4,29.5,3.5,43.9s8.2,28.5,15,41.8s15.5,25.8,25.9,37.1c5.7,6.1,12,11.7,17.8,17.7
						c5.9,6.1,11.4,12.8,13.9,20.8c2.4,7.3,2.3,15.6-2.4,22.2c-4,5.6-10.7,8.9-17.7,10.2c-16.4,3.1-31.4-5.6-42.2-16.1
						c-12.4-12.1-21.1-27-30-41.4c-8.6-13.9-17.7-27.9-30.4-39.1c-11.5-10.2-26-18.4-42.2-20.1c-3.9-0.4-7.8-0.4-11.7,0
						C674.7,1229.9,674.7,1232.2,676.3,1232.1"/>
				</g>
			</g>
		</g>
	</g>
</g>
<rect x="12.9" y="11" class="st13" width="873.2" height="285.8"/>
<g>
	<path class="st14" d="M41.7,60.3H25.4v-3.1H100v3.1H83l39,106L151.7,78L145,60.3h-20.3v-3.1h80.1v3.1h-17.7L224.4,166l35.2-105.7
		h-18.9v-3.1h38.3v3.1h-16l-54.3,163.1h-5L153.1,83.3l-46.9,140.2h-4.5L41.7,60.3z"/>
	<path class="st14" d="M333.7,139.7c0-16.7-3.8-23-13.9-23c-7.2,0-12.9,4.1-12.9,8.8c0,1.9,0.7,3.6,3.1,6.2c4.3,4.8,6,7.9,6,11.5
		c0,8.1-7.9,15.3-17,15.3c-10,0-17.7-7.2-17.7-17c0-16.3,16.3-27.5,39.9-27.5c19.4,0,36.1,7.9,42.3,19.6c2.2,4.1,3.1,8.8,2.9,16
		l-0.2,44.2c0,10,0.5,12.9,1.9,15.8c1.7,3.8,4.5,5.7,8.1,5.7c2.6,0,5-0.5,6.9-1.2l0.7,2.4c-3.8,1.4-8.4,2.2-13.4,2.2
		c-18.2,0-30.9-6.5-36.4-18.4c-8.8,13.6-17,17.7-34,17.7c-18.4,0-31.3-10.3-31.3-25.1c0-15.1,11.5-24.6,29.9-24.6l12.9,0.2
		c10.8,0,16-1.2,22-5.3V139.7z M333.7,166.7c-5,2.9-6,3.1-15.1,4.3c-3.1,0.5-7.2,3.1-9.8,6.2c-2.6,3.1-3.8,9.1-3.8,18.9
		c0,10,4.1,16,10.8,16c5.7,0,12-5.7,17.9-16.3V166.7z"/>
	<path class="st14" d="M395.1,213.6h14.6V53.4h-14.8v-3.1h48.6v163.4h15.8v3.1h-64.1V213.6z"/>
	<path class="st14" d="M470.5,213.6h14.4V53.4H470v-3.1h48.3v117h13.4l37.1-45h-21.3v-2.9h41.9v2.9h-16.5l-17,20.3l27.5,71h15.5v3.1
		H537v-3.1h10.5L531,170.1h-12.7v43.5h10.8v3.1h-58.6L470.5,213.6L470.5,213.6z"/>
	<path class="st14" d="M610.2,174.6h2.2c4.1,7.4,8.4,13.4,13.6,19.9c13.2,15.8,23.2,22,35.9,22c9.3,0,15.5-5.7,15.5-14.4
		c0-4.1-1.9-8.4-4.8-10.8c-3.8-3.6-7.7-5.3-21.8-9.1c-26.1-7.4-38.5-19.1-38.5-36.1c0-16,15.8-30.6,33.2-30.6c4.3,0,4.3,0,18.2,4.1
		c1.9,0.7,7.7,1.7,9.3,1.7c2.9,0,4.8-1,10.5-5l0.7,33.5h-2.2c-3.8-6.5-7.9-11.7-13.4-17.7c-8.6-9.1-15.1-13.2-21.5-13.2
		c-7.7,0-13.6,5.3-13.6,12c0,8.6,7.4,13.6,27.7,19.1c15.3,4.1,23.2,7.9,28.2,13.6c5,5.7,7.7,13.2,7.7,21.5
		c0,19.4-15.8,34.4-36.1,34.4c-4.5,0-7.9-0.7-12.7-2.6c-13.2-5-14.6-5.5-21.3-5.5c-6.2,0-9.1,1-16.5,5.3L610.2,174.6z"/>
	<path class="st14" d="M712.8,121.8H701v-2.9h64.1v3.1l-13.4-0.2l33.5,62.2l25.1-62.2h-16.3v-2.9h31.3v2.9h-12l-46.9,118.2
		c-2.9,7.4-9.3,20.3-12.7,25.6c-5.7,9.1-12.7,13.2-22,13.2c-11.7,0-21.5-9.8-21.5-21.5c0-10,7.2-17.5,17.2-17.5
		c8.8,0,14.4,4.8,14.4,12.7c0,3.3-1,6.2-3.3,9.6c-2.6,3.6-2.9,3.8-2.9,5.3c0,2.6,2.6,4.3,6.5,4.3c2.9,0,5.3-1.4,7.4-4.3
		c2.9-4.1,10.3-18.2,13.6-26.3l6.5-16.3L712.8,121.8z"/>
	<path class="st14" d="M868,199.5c0,11-8.8,19.6-20.1,19.6c-10.5,0-19.4-8.8-19.4-19.6c0-11,8.8-19.9,19.9-19.9S868,188.5,868,199.5
		z"/>
</g>
</svg>
