<?xml version="1.0" encoding="utf-8"?>
<!-- Generator: Adobe Illustrator 24.2.1, SVG Export Plug-In . SVG Version: 6.00 Build 0)  -->
<svg version="1.1" id="Layer_1" xmlns="http://www.w3.org/2000/svg" xmlns:xlink="http://www.w3.org/1999/xlink" x="0px" y="0px"
	 viewBox="0 0 916 302" style="enable-background:new 0 0 916 302;" xml:space="preserve">
<style type="text/css">
	.st0{fill:#F0E6D5;stroke:#FF4453;stroke-width:2;stroke-miterlimit:10;}
	.st1{fill:#FF4453;}
</style>
<rect x="1.9" y="1.9" class="st0" width="912.7" height="298.8"/>
<g>
	<path class="st1" d="M32,53.4H15v-3.2h78v3.2H75.2L116,164.1l31-92.2l-7-18.5h-21.2v-3.2h83.8v3.2H184l39,110.5l36.8-110.5H240
		v-3.2h40v3.2h-16.8l-56.8,170.5h-5.2L148.5,77.4l-49,146.5h-4.8L32,53.4z"/>
	<path class="st1" d="M337.2,136.4c0-17.5-4-24-14.5-24c-7.5,0-13.5,4.2-13.5,9.2c0,2,0.8,3.8,3.2,6.5c4.5,5,6.2,8.2,6.2,12
		c0,8.5-8.2,16-17.8,16c-10.5,0-18.5-7.5-18.5-17.8c0-17,17-28.8,41.8-28.8c20.2,0,37.8,8.2,44.2,20.5c2.2,4.2,3.2,9.2,3,16.8
		l-0.2,46.2c0,10.5,0.5,13.5,2,16.5c1.8,4,4.8,6,8.5,6c2.8,0,5.2-0.5,7.2-1.2l0.8,2.5c-4,1.5-8.8,2.2-14,2.2c-19,0-32.2-6.8-38-19.2
		c-9.2,14.2-17.8,18.5-35.5,18.5c-19.2,0-32.8-10.8-32.8-26.2c0-15.8,12-25.8,31.2-25.8l13.5,0.2c11.2,0,16.8-1.2,23-5.5V136.4z
		 M337.2,164.6c-5.2,3-6.2,3.2-15.8,4.5c-3.2,0.5-7.5,3.2-10.2,6.5s-4,9.5-4,19.8c0,10.5,4.2,16.8,11.2,16.8c6,0,12.5-6,18.8-17
		V164.6z"/>
	<path class="st1" d="M401.5,213.6h15.2V46.1h-15.5v-3.2H452v170.8h16.5v3.2h-67V213.6z"/>
	<path class="st1" d="M480.2,213.6h15V46.1h-15.5v-3.2h50.5v122.2h14l38.8-47h-22.2v-3h43.8v3h-17.2l-17.8,21.2l28.8,74.2h16.2v3.2
		h-64.8v-3.2h11l-17.2-45.5h-13.2v45.5h11.2v3.2h-61.2L480.2,213.6L480.2,213.6z"/>
	<path class="st1" d="M626.2,172.9h2.2c4.2,7.8,8.8,14,14.2,20.8c13.8,16.5,24.2,23,37.5,23c9.8,0,16.2-6,16.2-15
		c0-4.2-2-8.8-5-11.2c-4-3.8-8-5.5-22.8-9.5c-27.2-7.8-40.2-20-40.2-37.8c0-16.8,16.5-32,34.8-32c4.5,0,4.5,0,19,4.2
		c2,0.8,8,1.8,9.8,1.8c3,0,5-1,11-5.2l0.8,35h-2.2c-4-6.8-8.2-12.2-14-18.5c-9-9.5-15.8-13.8-22.5-13.8c-8,0-14.2,5.5-14.2,12.5
		c0,9,7.8,14.2,29,20c16,4.2,24.2,8.2,29.5,14.2s8,13.8,8,22.5c0,20.2-16.5,36-37.8,36c-4.8,0-8.2-0.8-13.2-2.8
		c-13.8-5.2-15.2-5.8-22.2-5.8c-6.5,0-9.5,1-17.2,5.5L626.2,172.9z"/>
	<path class="st1" d="M733.5,117.6h-12.2v-3h67v3.2l-14-0.2l35,65l26.2-65h-17v-3h32.8v3h-12.5l-49,123.5c-3,7.8-9.8,21.2-13.2,26.8
		c-6,9.5-13.2,13.8-23,13.8c-12.2,0-22.5-10.2-22.5-22.5c0-10.5,7.5-18.2,18-18.2c9.2,0,15,5,15,13.2c0,3.5-1,6.5-3.5,10
		c-2.8,3.8-3,4-3,5.5c0,2.8,2.8,4.5,6.8,4.5c3,0,5.5-1.5,7.8-4.5c3-4.2,10.8-19,14.2-27.5l6.8-17L733.5,117.6z"/>
	<path class="st1" d="M895.7,198.9c0,11.5-9.2,20.5-21,20.5c-11,0-20.2-9.2-20.2-20.5c0-11.5,9.2-20.8,20.8-20.8
		S895.7,187.4,895.7,198.9z"/>
</g>
</svg>
