<?xml version="1.0" encoding="utf-8"?>
<!-- Generator: Adobe Illustrator 24.2.1, SVG Export Plug-In . SVG Version: 6.00 Build 0)  -->
<svg version="1.1" id="Layer_1" xmlns="http://www.w3.org/2000/svg" xmlns:xlink="http://www.w3.org/1999/xlink" x="0px" y="0px"
	 viewBox="0 0 122.9 122.9" style="enable-background:new 0 0 122.9 122.9;" xml:space="preserve">
<style type="text/css">
	.st0{fill:#29AAE2;}
</style>
<g>
	<path class="st0" d="M68.2,13.5C78.7,15,88,19.9,95.1,27c7.3,7.3,12.2,16.9,13.6,27.7h14.2v13.6h-14.4
		c-1.6,10.1-6.4,19.2-13.4,26.1c-7.1,7.1-16.5,12-26.9,13.5v15H54.7v-15c-10.4-1.5-19.8-6.4-26.9-13.5c-6.9-6.9-11.7-16-13.4-26.1H0
		V54.7h14.2c1.4-10.8,6.3-20.4,13.6-27.7c7.1-7.1,16.5-12,26.9-13.5V0h13.6L68.2,13.5L68.2,13.5z M61.4,35.4
		c14,0,25.3,11.3,25.3,25.2c0,14-11.3,25.3-25.2,25.3c-14,0-25.2-11.3-25.2-25.2C36.2,46.7,47.5,35.4,61.4,35.4L61.4,35.4z M89,33.1
		c-7.1-7-16.8-11.4-27.6-11.4s-20.5,4.4-27.6,11.4c-7,7-11.4,16.8-11.4,27.6s4.4,20.5,11.4,27.6c7,7.1,16.8,11.4,27.6,11.4
		S82,95.3,89,88.2c7.1-7.1,11.4-16.8,11.4-27.6C100.4,49.9,96.1,40.2,89,33.1L89,33.1z"/>
</g>
</svg>
